<?xml version="1.0" encoding="UTF-8"?><svg id="Layer_2" xmlns="http://www.w3.org/2000/svg" viewBox="0 0 277.83 153.27"><defs><style>.cls-1{fill:#fff;}.cls-2{fill:#1A3A3A;}</style></defs><g id="Logo_Elements"><g><g><path class="cls-1" d="M140.49,111.78c.02,3.44-1.34,5.77-4.22,7.46-4.33,2.52-8.59,5.14-12.93,7.65-4.1,2.38-8.28,4.63-12.4,6.99-7.51,4.31-14.98,8.72-22.51,13.02-1.53,.87-3.09,1.7-4.66,2.48-.58,.3-1.14,.48-1.67,.59-3.12,1.74-7.14,2.8-11.51,2.8s-8.32-1.03-11.43-2.76c-.53-.18-1.08-.43-1.67-.78-6.13-3.62-12.38-7.02-18.54-10.58-5.94-3.42-11.8-6.96-17.74-10.38-4.57-2.62-9.2-5.15-13.84-7.67-4.4-2.38-6.9-5.67-6.85-11.02,.16-19.65,.06-39.3,.06-58.94,0-7.26,2.93-13,9.14-16.85,6.71-4.17,13.54-8.16,20.34-12.18l3.79-2.23c.37-.22,.74-.44,1.12-.66,5.49-3.22,11.03-6.36,16.53-9.58,3.34-1.95,6.59-4.08,10.01-5.9,3.22-1.7,6.74-3.01,10.45-2.7,3.91,.33,7.7,1.69,11.46,2.73,4.14,1.14,8.27,2.34,12.42,3.44,8.73,2.31,17.49,4.52,26.22,6.81,2.28,.6,4.54,1.27,6.78,2.02,2.26,.76,2.88,3.66,1.17,5.31-1,.98-2.21,1.8-3.44,2.49-3.89,2.17-7.8,4.29-11.71,6.43,12.86,6.46,17.16,8.83,21.44,11.23,2.91,1.63,4.22,4.03,4.21,7.46-.08,21.1-.09,42.21,0,63.31Z"/><path class="cls-2" d="M70.58,153.27c-4.25,0-8.4-1-11.67-2.82-.48-.15-1.06-.42-1.68-.78-3.53-2.08-7.16-4.13-10.67-6.11-2.63-1.48-5.26-2.96-7.87-4.47-2.85-1.64-5.68-3.31-8.52-4.98-3.07-1.81-6.14-3.62-9.23-5.39-4.57-2.63-9.15-5.12-13.83-7.67C2.21,118.39-.05,114.75,0,109.58c.12-14.3,.1-28.83,.08-42.89,0-5.35-.01-10.7-.01-16.05,0-7.61,3.15-13.42,9.37-17.27,5.91-3.67,12-7.26,17.89-10.73l6.26-3.69c.21-.13,.43-.26,.65-.39l.46-.27c2.88-1.69,5.78-3.36,8.68-5.03,2.62-1.51,5.24-3.02,7.85-4.55,1.18-.69,2.36-1.41,3.53-2.12,2.1-1.28,4.28-2.61,6.5-3.78C65.32,.66,68.72-.22,71.98,.05c3.07,.26,6.08,1.14,8.98,2,.86,.25,1.72,.51,2.57,.74,1.47,.41,2.93,.82,4.4,1.23,2.63,.74,5.34,1.5,8.02,2.21,4.96,1.31,9.93,2.6,14.91,3.88,3.77,.97,7.55,1.94,11.32,2.93,2.34,.62,4.63,1.3,6.81,2.03,1.22,.41,2.11,1.4,2.4,2.66,.29,1.27-.1,2.58-1.04,3.48-.93,.91-2.12,1.77-3.54,2.56-2.77,1.55-5.56,3.07-8.35,4.59l-2.53,1.38c11.85,5.96,16.2,8.34,20.61,10.81,3.02,1.69,4.48,4.28,4.46,7.9-.08,22.29-.08,43,0,63.31,.02,3.58-1.4,6.09-4.47,7.89-2.02,1.18-4.02,2.37-6.03,3.57-2.29,1.37-4.59,2.74-6.9,4.08-2.23,1.29-4.47,2.54-6.72,3.8-1.9,1.06-3.79,2.12-5.68,3.2-3.39,1.95-6.77,3.91-10.15,5.87-4.12,2.39-8.23,4.78-12.36,7.14-1.45,.83-3.03,1.67-4.69,2.49-.54,.28-1.12,.49-1.72,.62-3.29,1.82-7.44,2.83-11.69,2.83ZM70.85,1c-2.75,0-5.68,.87-9.12,2.69-2.19,1.16-4.35,2.48-6.45,3.76-1.18,.72-2.36,1.43-3.54,2.13-2.61,1.53-5.24,3.04-7.86,4.55-2.89,1.67-5.79,3.33-8.67,5.02l-.47,.28c-.22,.13-.43,.25-.65,.38l-6.26,3.69c-5.89,3.47-11.97,7.05-17.87,10.72-5.91,3.66-8.9,9.19-8.9,16.42,0,5.35,0,10.7,.01,16.05,.02,14.06,.04,28.6-.08,42.9-.04,4.82,1.99,8.08,6.59,10.57,4.68,2.54,9.27,5.05,13.85,7.68,3.09,1.78,6.16,3.59,9.24,5.4,2.83,1.67,5.66,3.34,8.51,4.98,2.61,1.51,5.23,2.99,7.86,4.47,3.52,1.98,7.15,4.03,10.69,6.12,.56,.33,1.08,.57,1.58,.73,3.21,1.78,7.19,2.73,11.27,2.73s8.11-.97,11.27-2.74l.14-.05c.54-.11,1.05-.29,1.55-.55,1.65-.82,3.21-1.65,4.64-2.47,4.13-2.36,8.25-4.75,12.36-7.14,3.38-1.97,6.76-3.93,10.15-5.88,1.89-1.08,3.79-2.14,5.69-3.2,2.24-1.25,4.49-2.5,6.71-3.79,2.31-1.33,4.6-2.7,6.89-4.07,2.01-1.2,4.02-2.4,6.04-3.58,2.76-1.62,3.99-3.79,3.98-7.02-.08-20.31-.08-41.02,0-63.32h0c.01-3.27-1.24-5.51-3.95-7.03-4.5-2.52-8.94-4.95-21.42-11.22l-.85-.43,4.2-2.3c2.79-1.52,5.57-3.04,8.34-4.59,1.34-.75,2.46-1.56,3.33-2.41,.69-.67,.97-1.62,.76-2.55-.21-.91-.86-1.64-1.74-1.93-2.15-.73-4.42-1.4-6.74-2.01-3.77-.99-7.54-1.96-11.31-2.93-4.97-1.28-9.95-2.56-14.91-3.88-2.69-.71-5.41-1.47-8.03-2.21-1.46-.41-2.93-.82-4.39-1.23-.86-.24-1.72-.49-2.59-.75-2.86-.84-5.81-1.72-8.78-1.96-.35-.03-.7-.04-1.05-.04Z"/></g><path class="cls-2" d="M91.04,19.34c.96-.99,2.42-1.78,4.47-2.42,2.38-.74,6.27-1.37,9.37-.67,1.94,.43,3.27,1.36,3.76,2.62,.26,.66,.48,1.98-.92,3.42-.97,.99-2.43,1.78-4.47,2.42-1.65,.52-4.03,.97-6.37,.97-1.03,0-2.06-.09-3.01-.3h0c-1.94-.43-3.27-1.36-3.76-2.62-.26-.66-.48-1.98,.92-3.41Z"/><path class="cls-2" d="M60.8,24.65c.96-.99,2.42-1.78,4.47-2.42,2.38-.74,6.27-1.37,9.37-.67,1.94,.43,3.27,1.36,3.76,2.62,.26,.66,.48,1.98-.92,3.42-.97,.99-2.43,1.78-4.47,2.42-1.65,.52-4.03,.97-6.37,.97-1.03,0-2.06-.09-3.01-.3h0c-1.94-.43-3.27-1.36-3.76-2.62-.26-.66-.48-1.98,.92-3.41Z"/><path class="cls-2" d="M30.31,30.39c.96-.99,2.42-1.78,4.47-2.42,2.38-.74,6.27-1.37,9.37-.67,1.94,.43,3.27,1.36,3.76,2.62,.26,.66,.48,1.98-.92,3.42-.97,.99-2.43,1.78-4.47,2.42-1.65,.52-4.03,.97-6.37,.97-1.03,0-2.06-.09-3.01-.3h0c-1.94-.43-3.27-1.36-3.76-2.62-.26-.66-.48-1.98,.92-3.41Z"/><path class="cls-2" d="M19.06,117.77c-.4,.09-.8,.13-1.21,.13-1.69,0-3.45-.74-5.09-2.15-2.75-2.37-4.6-6.22-4.6-9.57,0-3.12,1.67-5.5,4.24-6.08,2.03-.45,4.27,.26,6.3,2.02,2.75,2.37,4.6,6.22,4.6,9.57,0,3.16-1.62,5.49-4.24,6.08Z"/><path class="cls-2" d="M19.06,79.25c-.4,.09-.8,.13-1.21,.13-1.68,0-3.45-.74-5.09-2.15-2.75-2.37-4.6-6.22-4.6-9.57,0-3.12,1.66-5.5,4.24-6.08,2.03-.45,4.27,.26,6.31,2.02,2.75,2.37,4.6,6.22,4.6,9.57,0,3.16-1.63,5.49-4.24,6.08Z"/><path class="cls-2" d="M35.74,108.89c-.4,.09-.8,.13-1.21,.13-1.68,0-3.45-.74-5.09-2.15-2.75-2.37-4.6-6.22-4.6-9.57,0-3.12,1.67-5.5,4.24-6.08,2.03-.45,4.27,.26,6.3,2.02,2.75,2.37,4.6,6.22,4.6,9.57,0,3.16-1.63,5.49-4.24,6.08Z"/><path class="cls-2" d="M51.21,137.17c-1.69,0-3.45-.74-5.09-2.15-2.75-2.37-4.6-6.22-4.6-9.57,0-3.16,1.63-5.49,4.24-6.08,2.03-.45,4.27,.26,6.3,2.02,2.75,2.37,4.6,6.22,4.6,9.57,0,3.16-1.63,5.49-4.24,6.08-.4,.09-.8,.13-1.21,.13Z"/><path class="cls-2" d="M41.51,86.92c0-3.16,1.63-5.49,4.24-6.08,2.03-.45,4.27,.26,6.3,2.02,2.75,2.37,4.6,6.22,4.6,9.57,0,3.16-1.62,5.49-4.24,6.08-.4,.09-.8,.13-1.21,.13-1.69,0-3.45-.74-5.09-2.15-2.75-2.37-4.6-6.22-4.6-9.57Z"/><path class="cls-2" d="M113.97,106.78c-1.64,1.41-3.41,2.15-5.09,2.15-.41,0-.81-.04-1.21-.13-2.62-.59-4.24-2.91-4.24-6.08,0-3.35,1.85-7.2,4.6-9.57,2.04-1.76,4.28-2.48,6.31-2.02,2.62,.58,4.24,2.91,4.24,6.08,0,3.35-1.85,7.2-4.6,9.57Z"/><path class="cls-2" d="M125.27,47.78c-4.25-2.52-8.81-5.4-21.35-11.81h-.15c-3.22,1.84-6.44,3.69-9.68,5.5-5.06,2.84-10.15,5.64-15.25,8.4-2.3,1.25-4.62,2.51-7.05,3.46-1.13,.44-2.62,.44-3.82,.15-15.12-3.73-30.2-7.59-45.32-11.31-1.76-.43-3.7-.37-5.54-.24-1.91,.14-3.11,1.6-3.64,3.24-1.02,3.19,.47,6.31,3.51,8,9.33,5.2,18.67,10.4,27.99,15.63,5.17,2.91,10.29,5.9,15.43,8.85,2.94,1.69,4.15,4.37,4.15,7.59,.04,19.91,.02,34.66,.02,54.58,0,.13,0,.27,0,.4v1.51c0,3.49,2.83,6.32,6.32,6.32h0c3.49,0,6.32-2.83,6.32-6.32v-1.75c0-.56,0,.03,0-.07,0-19.78,.08-34.55-.07-54.32-.03-4.31,1.94-6.93,5.41-8.89,10.22-5.76,20.43-11.55,30.66-17.29,3.93-2.21,7.9-4.35,11.85-6.5,.68-.37,1.25-.96,1.49-1.7,.44-1.36-.14-2.74-1.29-3.42Z"/><g><path class="cls-2" d="M172.72,25.22h-4.68v18.94h-6.89V25.22h-4.96l.4-6.09h16.52l-.4,6.09Z"/><path class="cls-2" d="M193.19,44.17h-6.85v-9.47h-4.72v9.47h-6.93V19.14h6.93v9.83h4.72v-9.83h6.85v25.03Z"/><path class="cls-2" d="M210.12,44.17h-13.54V19.14h13.95l-.4,6.17h-6.65v3.75h5.76v5.32h-5.76v4.15h7.05l-.4,5.64Z"/><path class="cls-2" d="M170.9,73.39h-12.74v-25.03h6.89v19.43h6.25l-.4,5.6Z"/><path class="cls-2" d="M174.27,50.98c1.54-2.02,4.08-3.02,7.6-3.02s6.04,.99,7.56,2.98c1.52,1.99,2.28,5.22,2.28,9.69s-.78,7.79-2.34,9.93c-1.56,2.15-4.08,3.22-7.58,3.22s-6.01-1.06-7.54-3.18c-1.53-2.12-2.3-5.42-2.3-9.89s.77-7.72,2.32-9.73Zm9.91,4.66c-.39-.87-1.18-1.31-2.38-1.31s-1.97,.44-2.32,1.31c-.35,.87-.52,2.53-.52,4.98v.97c0,2.61,.19,4.32,.58,5.14,.39,.82,1.18,1.23,2.38,1.23s1.97-.39,2.32-1.17c.35-.78,.52-2.39,.52-4.84v-1.29c0-2.47-.2-4.14-.58-5.02Z"/><path class="cls-2" d="M212.7,73.39h-6.61l-5.2-11.65h-.32v11.65h-6.13v-25.03h6.81l4.96,12.01h.32v-12.01h6.17v25.03Z"/><path class="cls-2" d="M231.32,55.82c-2.58-.78-4.47-1.17-5.66-1.17s-2.02,.52-2.46,1.57c-.44,1.05-.66,2.71-.66,4.98s.21,3.92,.62,4.96c.42,1.03,1.27,1.55,2.56,1.55,.38,0,1.1-.11,2.18-.32v-3.06h-1.81v-4.76h7.7v13.82h-4.76l-.64-1.29h-.16c-.46,.38-.82,.66-1.09,.85-.75,.56-1.81,.85-3.18,.85-5.62,0-8.42-4.25-8.42-12.74,0-4.25,.74-7.49,2.22-9.73,1.48-2.24,3.96-3.37,7.46-3.37,2.79,0,5.2,.43,7.21,1.29l-1.09,6.57Z"/><path class="cls-2" d="M173.24,85.04c-2.58-.78-4.47-1.17-5.66-1.17s-2.02,.52-2.46,1.57c-.44,1.05-.66,2.71-.66,4.98s.21,3.92,.62,4.96c.42,1.03,1.27,1.55,2.56,1.55,.38,0,1.1-.11,2.18-.32v-3.06h-1.81v-4.76h7.7v13.82h-4.76l-.64-1.29h-.16c-.46,.38-.82,.66-1.09,.85-.75,.56-1.81,.85-3.18,.85-5.62,0-8.42-4.25-8.42-12.74,0-4.25,.74-7.49,2.22-9.73,1.48-2.24,3.96-3.37,7.46-3.37,2.79,0,5.2,.43,7.21,1.29l-1.09,6.57Z"/><path class="cls-2" d="M197.06,102.61h-6.73l-.77-3.95h-4.76l-.77,3.95h-6.41l4.59-25.03h10.24l4.59,25.03Zm-8.26-8.67l-1.41-8.95h-.28l-1.41,8.95h3.1Z"/><path class="cls-2" d="M223.38,102.61h-6.33v-13.06h-.36l-2.38,13.06h-6.49l-2.26-13.06h-.4v13.06h-6.25l.85-25.03h9.07l2.26,13.54h.32l2.18-13.54h8.95l.85,25.03Z"/><path class="cls-2" d="M240.22,102.61h-13.54v-25.03h13.95l-.4,6.17h-6.65v3.75h5.76v5.32h-5.76v4.15h7.05l-.4,5.64Z"/><path class="cls-2" d="M166.79,123.65h-1.85v8.18h-6.77v-25.03h8.18c2.87,0,5.01,.66,6.41,1.97,1.4,1.32,2.1,3.48,2.1,6.49s-.66,5.16-1.97,6.45c-1.32,1.29-3.35,1.93-6.09,1.93Zm.77-5.44c.24-.46,.36-1.28,.36-2.46s-.13-2.02-.4-2.5c-.27-.48-.81-.73-1.61-.73h-.97v6.37h1.13c.75,0,1.25-.23,1.49-.69Z"/><path class="cls-2" d="M194,114.74c0,1.51-.23,2.75-.69,3.75-.46,.99-1.17,1.89-2.14,2.7l3.35,10.64h-7.46l-2.5-9.03h-.93v9.03h-6.77v-25.03h9.35c2.69,0,4.65,.63,5.9,1.89,1.25,1.26,1.87,3.28,1.87,6.05Zm-7.82,3.22c.3-.4,.44-1.13,.44-2.2s-.15-1.8-.44-2.22c-.3-.42-.78-.62-1.45-.62h-1.09v5.64h1.05c.7,0,1.2-.2,1.49-.6Z"/><path class="cls-2" d="M198.29,109.42c1.54-2.02,4.08-3.02,7.6-3.02s6.04,.99,7.56,2.98c1.52,1.99,2.28,5.22,2.28,9.69s-.78,7.79-2.34,9.93c-1.56,2.15-4.08,3.22-7.58,3.22s-6.01-1.06-7.54-3.18c-1.53-2.12-2.3-5.42-2.3-9.89s.77-7.72,2.32-9.73Zm9.91,4.66c-.39-.87-1.18-1.31-2.38-1.31s-1.97,.44-2.32,1.31c-.35,.87-.52,2.53-.52,4.98v.97c0,2.61,.19,4.32,.58,5.14,.39,.82,1.18,1.23,2.38,1.23s1.97-.39,2.32-1.17c.35-.78,.52-2.39,.52-4.84v-1.29c0-2.47-.2-4.14-.58-5.02Z"/><path class="cls-2" d="M226.52,106.8v19.99c0,2.07-.47,3.49-1.41,4.27-.94,.78-2.67,1.17-5.2,1.17h-2.06l-.52-5.48h1.37c.46,0,.75-.06,.87-.18,.12-.12,.18-.38,.18-.79v-18.98h6.77Z"/><path class="cls-2" d="M243.61,131.83h-13.54v-25.03h13.95l-.4,6.17h-6.65v3.75h5.76v5.32h-5.76v4.15h7.05l-.4,5.64Z"/><path class="cls-2" d="M252.56,119.56c0,2.38,.23,4.07,.71,5.08,.47,1.01,1.24,1.51,2.32,1.51s2.59-.26,4.55-.77l1.05,5.68c-2.12,.78-4.26,1.17-6.41,1.17-3.22,0-5.57-1.07-7.03-3.2-1.46-2.14-2.2-5.32-2.2-9.55s.77-7.47,2.3-9.71c1.53-2.24,4.03-3.37,7.5-3.37,2.04,0,3.99,.43,5.84,1.29l-1.09,6.25c-2.1-.7-3.56-1.05-4.39-1.05-1.18,0-2,.52-2.46,1.55-.46,1.03-.69,2.74-.69,5.12Z"/><path class="cls-2" d="M277.42,112.88h-4.68v18.94h-6.89v-18.94h-4.96l.4-6.09h16.52l-.4,6.09Z"/></g></g></g></svg>