<?xml version="1.0" encoding="UTF-8"?><svg id="Layer_2" xmlns="http://www.w3.org/2000/svg" viewBox="0 0 277.83 150.83"><defs><style>.cls-1{stroke:#1A3A3A;stroke-miterlimit:10;}.cls-1,.cls-2{fill:#1A3A3A;}</style></defs><g id="Logo_Elements"><g><g><path class="cls-1" d="M94.1,41.47c5.4-3.03,10.75-6.16,16.16-9.18,5.42-3.02,10.89-5.93,16.31-8.95,1.23-.69,2.43-1.51,3.44-2.48,1.71-1.65,1.08-4.55-1.17-5.31s-4.5-1.43-6.78-2.02c-8.74-2.29-17.49-4.5-26.22-6.81-4.15-1.1-8.28-2.3-12.42-3.44-3.77-1.04-7.55-2.4-11.47-2.73-3.7-.31-7.23,1-10.45,2.71-3.41,1.81-6.67,3.94-10,5.89-5.5,3.22-11.04,6.35-16.53,9.58-.37,.22-.75,.44-1.12,.66-1.26,.74-2.53,1.49-3.79,2.23-6.8,4.02-13.63,8.01-20.34,12.17C3.49,37.64,.57,43.39,.56,50.64c0,19.65,.1,39.3-.06,58.94-.04,5.34,2.45,8.63,6.85,11.02,4.64,2.52,9.26,5.05,13.84,7.67,5.94,3.41,11.81,6.95,17.74,10.38,6.17,3.56,12.42,6.97,18.55,10.58,4.38,2.58,7.23,.32,7.1-3.86,0-.13,0-.27,0-.4,0-19.91,.02-39.83-.02-59.74,0-3.21-1.21-5.9-4.15-7.59-5.15-2.95-10.27-5.94-15.43-8.85-9.31-5.24-18.65-10.43-27.99-15.63-3.03-1.69-4.53-4.82-3.51-8,.53-1.65,1.72-3.11,3.64-3.24,1.84-.13,3.78-.2,5.54,.24,15.12,3.72,30.2,7.58,45.32,11.31,1.2,.3,2.69,.29,3.82-.15,2.43-.95,4.75-2.21,7.05-3.46,5.11-2.76,10.19-5.56,15.25-8.4Zm-3.06-22.13c.96-.99,2.43-1.78,4.47-2.42,2.38-.74,6.27-1.37,9.37-.67,1.94,.43,3.27,1.36,3.76,2.62,.26,.66,.48,1.98-.92,3.42-.97,.99-2.43,1.78-4.47,2.42-1.65,.52-4.03,.97-6.37,.97-1.03,0-2.06-.09-3.01-.3h0c-1.94-.43-3.27-1.36-3.76-2.62-.26-.66-.48-1.98,.92-3.41Zm-30.24,5.31c.96-.99,2.43-1.78,4.47-2.42,2.38-.74,6.27-1.37,9.37-.67,1.94,.43,3.27,1.36,3.76,2.62,.26,.66,.48,1.98-.92,3.42-.97,.99-2.43,1.78-4.47,2.42-1.65,.52-4.03,.97-6.37,.97-1.03,0-2.06-.09-3.01-.3h0c-1.94-.43-3.27-1.36-3.76-2.62-.26-.66-.48-1.98,.92-3.41Zm-30.49,5.73c.96-.99,2.43-1.78,4.47-2.42,2.38-.74,6.27-1.37,9.37-.67,1.94,.43,3.27,1.36,3.76,2.62,.26,.66,.48,1.98-.92,3.42-.97,.99-2.43,1.78-4.47,2.42-1.65,.52-4.03,.97-6.37,.97-1.03,0-2.06-.09-3.01-.3h0c-1.94-.43-3.27-1.36-3.76-2.62-.26-.66-.48-1.98,.92-3.41Zm-11.25,87.38c-.4,.09-.8,.13-1.21,.13-1.69,0-3.45-.74-5.09-2.15-2.75-2.37-4.6-6.22-4.6-9.57,0-3.12,1.67-5.5,4.24-6.08,2.03-.45,4.27,.26,6.3,2.02,2.75,2.37,4.6,6.22,4.6,9.57,0,3.16-1.62,5.49-4.24,6.08Zm26.7-36.93c2.03-.45,4.27,.26,6.3,2.02,2.75,2.37,4.6,6.22,4.6,9.57,0,3.16-1.62,5.49-4.24,6.08-.4,.09-.8,.13-1.21,.13-1.69,0-3.45-.74-5.09-2.15-2.75-2.37-4.6-6.22-4.6-9.57,0-3.16,1.63-5.49,4.24-6.08Zm0,38.53c2.03-.45,4.27,.26,6.3,2.02,2.75,2.37,4.6,6.22,4.6,9.57,0,3.16-1.63,5.49-4.24,6.08-.4,.09-.8,.13-1.21,.13-1.69,0-3.45-.74-5.09-2.15-2.75-2.37-4.6-6.22-4.6-9.57,0-3.16,1.63-5.49,4.24-6.08Zm-16.68-28.14c2.03-.45,4.27,.26,6.3,2.02,2.75,2.37,4.6,6.22,4.6,9.57,0,3.16-1.63,5.49-4.24,6.08-.4,.09-.8,.13-1.21,.13-1.68,0-3.45-.74-5.09-2.15-2.75-2.37-4.6-6.22-4.6-9.57,0-3.12,1.67-5.5,4.24-6.08Zm-10.38-27.63c2.75,2.37,4.6,6.22,4.6,9.57,0,3.16-1.63,5.49-4.24,6.08-.4,.09-.8,.13-1.21,.13-1.68,0-3.45-.74-5.09-2.15-2.75-2.37-4.6-6.22-4.6-9.57,0-3.12,1.66-5.5,4.24-6.08,2.03-.45,4.27,.26,6.31,2.02Z"/><path class="cls-1" d="M140.49,48.47c.01-3.43-1.29-5.83-4.21-7.46-4.49-2.51-8.99-5-13.94-7.76l-10.81,6.24c4.51,2.62,9.29,5.66,13.74,8.29,.89,.53,1.43,1.47,1.43,2.5h0c0,1.06-.58,2.04-1.51,2.55-3.98,2.17-8,4.33-11.97,6.56-10.23,5.74-20.44,11.52-30.66,17.29-3.47,1.96-5.44,4.57-5.41,8.89,.15,19.78,.07,39.55,.07,59.33,0,.12,0,.24,0,.36-.08,4.09,2.9,5.94,6.55,4.11,1.58-.79,3.13-1.61,4.66-2.49,7.53-4.3,15-8.7,22.52-13.01,4.12-2.36,8.29-4.61,12.4-6.99,4.33-2.51,8.6-5.13,12.92-7.65,2.88-1.68,4.24-4.02,4.22-7.45-.08-21.1-.08-42.21,0-63.31Zm-26.53,58.31c-1.64,1.41-3.41,2.15-5.09,2.15-.41,0-.81-.04-1.21-.13-2.62-.59-4.24-2.91-4.24-6.08,0-3.35,1.85-7.2,4.6-9.57,2.04-1.76,4.28-2.48,6.31-2.02,2.62,.58,4.24,2.91,4.24,6.08,0,3.35-1.85,7.2-4.6,9.57Z"/></g><g><path class="cls-2" d="M172.72,25.23h-4.68v18.94h-6.89V25.23h-4.96l.4-6.09h16.52l-.4,6.09Z"/><path class="cls-2" d="M193.19,44.17h-6.85v-9.47h-4.72v9.47h-6.93V19.14h6.93v9.83h4.72v-9.83h6.85v25.03Z"/><path class="cls-2" d="M210.12,44.17h-13.54V19.14h13.95l-.4,6.17h-6.65v3.75h5.76v5.32h-5.76v4.15h7.05l-.4,5.64Z"/><path class="cls-2" d="M170.9,73.39h-12.74v-25.03h6.89v19.43h6.25l-.4,5.6Z"/><path class="cls-2" d="M174.27,50.98c1.54-2.02,4.08-3.02,7.6-3.02s6.04,.99,7.56,2.98c1.52,1.99,2.28,5.22,2.28,9.69s-.78,7.79-2.34,9.93c-1.56,2.15-4.08,3.22-7.58,3.22s-6.01-1.06-7.54-3.18c-1.53-2.12-2.3-5.42-2.3-9.89s.77-7.72,2.32-9.73Zm9.91,4.66c-.39-.87-1.18-1.31-2.38-1.31s-1.97,.44-2.32,1.31c-.35,.87-.52,2.53-.52,4.98v.97c0,2.61,.19,4.32,.58,5.14,.39,.82,1.18,1.23,2.38,1.23s1.97-.39,2.32-1.17c.35-.78,.52-2.39,.52-4.84v-1.29c0-2.47-.2-4.14-.58-5.02Z"/><path class="cls-2" d="M212.7,73.39h-6.61l-5.2-11.65h-.32v11.65h-6.13v-25.03h6.81l4.96,12.01h.32v-12.01h6.17v25.03Z"/><path class="cls-2" d="M231.32,55.82c-2.58-.78-4.47-1.17-5.66-1.17s-2.02,.52-2.46,1.57c-.44,1.05-.66,2.71-.66,4.98s.21,3.92,.62,4.96c.42,1.03,1.27,1.55,2.56,1.55,.38,0,1.1-.11,2.18-.32v-3.06h-1.81v-4.76h7.7v13.82h-4.76l-.64-1.29h-.16c-.46,.38-.82,.66-1.09,.85-.75,.56-1.81,.85-3.18,.85-5.62,0-8.42-4.25-8.42-12.74,0-4.25,.74-7.49,2.22-9.73,1.48-2.24,3.96-3.37,7.46-3.37,2.79,0,5.2,.43,7.21,1.29l-1.09,6.57Z"/><path class="cls-2" d="M173.24,85.04c-2.58-.78-4.47-1.17-5.66-1.17s-2.02,.52-2.46,1.57c-.44,1.05-.66,2.71-.66,4.98s.21,3.92,.62,4.96c.42,1.03,1.27,1.55,2.56,1.55,.38,0,1.1-.11,2.18-.32v-3.06h-1.81v-4.76h7.7v13.82h-4.76l-.64-1.29h-.16c-.46,.38-.82,.66-1.09,.85-.75,.56-1.81,.85-3.18,.85-5.62,0-8.42-4.25-8.42-12.74,0-4.25,.74-7.49,2.22-9.73,1.48-2.24,3.96-3.37,7.46-3.37,2.79,0,5.2,.43,7.21,1.29l-1.09,6.57Z"/><path class="cls-2" d="M197.06,102.61h-6.73l-.77-3.95h-4.76l-.77,3.95h-6.41l4.59-25.03h10.24l4.59,25.03Zm-8.26-8.67l-1.41-8.95h-.28l-1.41,8.95h3.1Z"/><path class="cls-2" d="M223.38,102.61h-6.33v-13.06h-.36l-2.38,13.06h-6.49l-2.26-13.06h-.4v13.06h-6.25l.85-25.03h9.07l2.26,13.54h.32l2.18-13.54h8.95l.85,25.03Z"/><path class="cls-2" d="M240.22,102.61h-13.54v-25.03h13.95l-.4,6.17h-6.65v3.75h5.76v5.32h-5.76v4.15h7.05l-.4,5.64Z"/><path class="cls-2" d="M166.79,123.65h-1.85v8.18h-6.77v-25.03h8.18c2.87,0,5.01,.66,6.41,1.97,1.4,1.32,2.1,3.48,2.1,6.49s-.66,5.16-1.97,6.45c-1.32,1.29-3.35,1.93-6.09,1.93Zm.77-5.44c.24-.46,.36-1.28,.36-2.46s-.13-2.02-.4-2.5c-.27-.48-.81-.73-1.61-.73h-.97v6.37h1.13c.75,0,1.25-.23,1.49-.69Z"/><path class="cls-2" d="M194,114.74c0,1.51-.23,2.75-.69,3.75-.46,.99-1.17,1.89-2.14,2.7l3.35,10.64h-7.46l-2.5-9.03h-.93v9.03h-6.77v-25.03h9.35c2.69,0,4.65,.63,5.9,1.89,1.25,1.26,1.87,3.28,1.87,6.05Zm-7.82,3.22c.3-.4,.44-1.13,.44-2.2s-.15-1.8-.44-2.22c-.3-.42-.78-.62-1.45-.62h-1.09v5.64h1.05c.7,0,1.2-.2,1.49-.6Z"/><path class="cls-2" d="M198.29,109.42c1.54-2.02,4.08-3.02,7.6-3.02s6.04,.99,7.56,2.98c1.52,1.99,2.28,5.22,2.28,9.69s-.78,7.79-2.34,9.93c-1.56,2.15-4.08,3.22-7.58,3.22s-6.01-1.06-7.54-3.18c-1.53-2.12-2.3-5.42-2.3-9.89s.77-7.72,2.32-9.73Zm9.91,4.66c-.39-.87-1.18-1.31-2.38-1.31s-1.97,.44-2.32,1.31c-.35,.87-.52,2.53-.52,4.98v.97c0,2.61,.19,4.32,.58,5.14,.39,.82,1.18,1.23,2.38,1.23s1.97-.39,2.32-1.17c.35-.78,.52-2.39,.52-4.84v-1.29c0-2.47-.2-4.14-.58-5.02Z"/><path class="cls-2" d="M226.52,106.8v19.99c0,2.07-.47,3.49-1.41,4.27-.94,.78-2.67,1.17-5.2,1.17h-2.06l-.52-5.48h1.37c.46,0,.75-.06,.87-.18,.12-.12,.18-.38,.18-.79v-18.98h6.77Z"/><path class="cls-2" d="M243.61,131.83h-13.54v-25.03h13.95l-.4,6.17h-6.65v3.75h5.76v5.32h-5.76v4.15h7.05l-.4,5.64Z"/><path class="cls-2" d="M252.56,119.56c0,2.38,.23,4.07,.71,5.08,.47,1.01,1.24,1.51,2.32,1.51s2.59-.26,4.55-.77l1.05,5.68c-2.12,.78-4.26,1.17-6.41,1.17-3.22,0-5.57-1.07-7.03-3.2-1.46-2.14-2.2-5.32-2.2-9.55s.77-7.47,2.3-9.71c1.53-2.24,4.03-3.37,7.5-3.37,2.04,0,3.99,.43,5.84,1.29l-1.09,6.25c-2.1-.7-3.56-1.05-4.39-1.05-1.18,0-2,.52-2.46,1.55-.46,1.03-.69,2.74-.69,5.12Z"/><path class="cls-2" d="M277.42,112.89h-4.68v18.94h-6.89v-18.94h-4.96l.4-6.09h16.52l-.4,6.09Z"/></g></g></g></svg>