<?xml version="1.0" encoding="UTF-8"?><svg id="Layer_2" xmlns="http://www.w3.org/2000/svg" viewBox="0 0 148.2 165.11"><defs><style>.cls-1{fill:#fff;}</style></defs><g id="Logo_Elements"><g><path class="cls-1" d="M103.61,4.24c1.21-1.24,3.03-2.23,5.58-3.02,2.98-.93,7.83-1.71,11.72-.84,2.42,.54,4.09,1.71,4.7,3.28,.32,.83,.6,2.48-1.15,4.27-1.21,1.24-3.03,2.23-5.58,3.02-2.07,.65-5.04,1.22-7.96,1.22-1.29,0-2.57-.11-3.76-.38h0c-2.42-.54-4.09-1.71-4.7-3.28-.32-.83-.6-2.48,1.15-4.27Z"/><path class="cls-1" d="M65.81,10.88c1.21-1.24,3.03-2.23,5.58-3.02,2.98-.93,7.83-1.71,11.72-.84,2.42,.54,4.09,1.71,4.7,3.28,.32,.83,.6,2.48-1.15,4.27-1.21,1.24-3.03,2.23-5.58,3.02-2.07,.65-5.04,1.22-7.96,1.22-1.29,0-2.57-.11-3.76-.38h0c-2.42-.54-4.09-1.71-4.7-3.28-.32-.83-.6-2.48,1.15-4.27Z"/><path class="cls-1" d="M27.7,18.05c1.21-1.24,3.03-2.23,5.58-3.02,2.98-.93,7.83-1.71,11.72-.84,2.42,.54,4.09,1.71,4.7,3.28,.32,.83,.6,2.48-1.15,4.27-1.21,1.24-3.03,2.23-5.58,3.02-2.07,.65-5.04,1.22-7.96,1.22-1.29,0-2.57-.11-3.76-.38h0c-2.42-.54-4.09-1.71-4.7-3.28-.32-.83-.6-2.48,1.15-4.27Z"/><path class="cls-1" d="M13.64,127.28c-.5,.11-1,.17-1.52,.17-2.11,0-4.32-.93-6.37-2.69-3.44-2.97-5.75-7.78-5.75-11.97,0-3.9,2.08-6.88,5.3-7.6,2.53-.57,5.33,.33,7.88,2.53,3.44,2.97,5.75,7.78,5.75,11.96,0,3.95-2.03,6.87-5.3,7.6Z"/><path class="cls-1" d="M13.63,79.12c-.5,.11-1,.17-1.51,.17-2.11,0-4.32-.93-6.37-2.69-3.44-2.97-5.75-7.78-5.75-11.97,0-3.89,2.08-6.88,5.3-7.6,2.54-.56,5.34,.33,7.88,2.53,3.44,2.97,5.75,7.78,5.75,11.96,0,3.96-2.03,6.87-5.3,7.6Z"/><path class="cls-1" d="M34.49,116.18c-.5,.11-1,.17-1.52,.17-2.11,0-4.32-.93-6.37-2.69-3.44-2.97-5.75-7.77-5.75-11.96,0-3.9,2.08-6.88,5.3-7.6,2.54-.57,5.33,.33,7.88,2.53,3.44,2.97,5.75,7.78,5.75,11.96,0,3.96-2.03,6.87-5.3,7.6Z"/><path class="cls-1" d="M53.82,151.52c-2.11,0-4.32-.93-6.37-2.69-3.44-2.97-5.75-7.77-5.75-11.96,0-3.95,2.03-6.87,5.3-7.6,2.54-.57,5.33,.33,7.88,2.53,3.44,2.97,5.75,7.78,5.75,11.97,0,3.95-2.03,6.87-5.3,7.6-.5,.11-1,.17-1.52,.17Z"/><path class="cls-1" d="M41.71,88.71c0-3.96,2.03-6.87,5.3-7.6,2.54-.57,5.33,.33,7.88,2.53,3.44,2.97,5.75,7.77,5.75,11.96,0,3.95-2.03,6.87-5.3,7.6-.5,.11-1,.17-1.52,.17-2.11,0-4.32-.93-6.37-2.69-3.44-2.97-5.75-7.77-5.75-11.96Z"/><path class="cls-1" d="M132.27,113.54c-2.05,1.77-4.26,2.69-6.37,2.69-.51,0-1.02-.05-1.51-.17-3.27-.73-5.3-3.64-5.3-7.6,0-4.19,2.31-9,5.75-11.96,2.55-2.2,5.35-3.09,7.88-2.52,3.27,.73,5.3,3.64,5.3,7.6,0,4.19-2.31,9-5.75,11.96Z"/><path class="cls-1" d="M146.41,39.79c-5.31-3.15-11.01-6.75-26.68-14.77h-.19c-4.03,2.3-8.05,4.61-12.1,6.88-6.33,3.55-12.69,7.05-19.07,10.5-2.88,1.56-5.77,3.14-8.81,4.32-1.41,.55-3.27,.55-4.77,.18-18.89-4.67-37.75-9.49-56.65-14.14-2.21-.54-4.63-.46-6.93-.3-2.39,.17-3.88,2-4.55,4.06-1.28,3.98,.59,7.89,4.38,10.01,11.67,6.51,23.34,13,34.98,19.54,6.46,3.63,12.86,7.37,19.29,11.06,3.68,2.11,5.18,5.47,5.19,9.48,.05,24.89,.02,43.33,.02,68.22,0,.17,0,.33,0,.5v1.89c0,4.36,3.53,7.9,7.9,7.9h0c4.36,0,7.9-3.53,7.9-7.9v-2.19c0-.7,0,.04,0-.09,0-24.72,.1-43.18-.08-67.9-.04-5.39,2.42-8.66,6.76-11.11,12.78-7.21,25.54-14.43,38.33-21.61,4.92-2.76,9.88-5.43,14.81-8.12,.85-.47,1.57-1.2,1.86-2.13,.54-1.7-.18-3.43-1.61-4.28Z"/></g></g></svg>