<?xml version="1.0" encoding="UTF-8"?><svg id="Layer_2" xmlns="http://www.w3.org/2000/svg" viewBox="0 0 175.99 188.29"><defs><style>.cls-1{fill:#1A3A3A;stroke:#1A3A3A;stroke-miterlimit:10;}</style></defs><g id="Logo_Elements"><g><path class="cls-1" d="M117.49,51.71c6.75-3.79,13.44-7.7,20.2-11.47,6.77-3.78,13.62-7.41,20.38-11.19,1.54-.86,3.04-1.89,4.3-3.11,2.14-2.07,1.35-5.69-1.46-6.64s-5.62-1.78-8.47-2.53c-10.92-2.86-21.87-5.62-32.78-8.51-5.19-1.37-10.35-2.88-15.53-4.31-4.71-1.3-9.44-3-14.33-3.41-4.62-.38-9.04,1.24-13.06,3.38-4.27,2.27-8.34,4.92-12.5,7.37-6.87,4.02-13.8,7.94-20.67,11.97-.47,.27-.93,.55-1.4,.82-1.58,.93-3.16,1.86-4.74,2.79-8.51,5.02-17.04,10.01-25.43,15.22C4.24,46.92,.58,54.11,.58,63.18c0,24.56,.12,49.12-.08,73.68-.05,6.68,3.06,10.79,8.57,13.77,5.79,3.14,11.58,6.31,17.3,9.59,7.43,4.26,14.76,8.69,22.17,12.97,7.71,4.45,15.52,8.71,23.19,13.23,5.47,3.23,9.04,.4,8.87-4.82,0-.17,0-.33,0-.5,0-24.89,.02-49.78-.02-74.67,0-4.02-1.51-7.38-5.19-9.48-6.43-3.68-12.83-7.43-19.29-11.06-11.64-6.55-23.32-13.04-34.98-19.54-3.79-2.11-5.67-6.02-4.38-10.01,.66-2.06,2.15-3.88,4.55-4.06,2.3-.17,4.72-.25,6.93,.3,18.9,4.65,37.75,9.47,56.65,14.14,1.5,.37,3.36,.37,4.77-.18,3.04-1.19,5.93-2.77,8.81-4.32,6.38-3.45,12.74-6.95,19.07-10.5Zm-3.82-27.66c1.21-1.24,3.03-2.23,5.58-3.02,2.98-.93,7.83-1.71,11.72-.84,2.42,.54,4.09,1.71,4.7,3.28,.32,.83,.6,2.48-1.15,4.27-1.21,1.24-3.03,2.23-5.58,3.02-2.07,.65-5.04,1.22-7.96,1.22-1.29,0-2.57-.11-3.76-.38h0c-2.42-.54-4.09-1.71-4.7-3.28-.32-.83-.6-2.48,1.15-4.27Zm-37.8,6.64c1.21-1.24,3.03-2.23,5.58-3.02,2.98-.93,7.83-1.71,11.72-.84,2.42,.54,4.09,1.71,4.7,3.28,.32,.83,.6,2.48-1.15,4.27-1.21,1.24-3.03,2.23-5.58,3.02-2.07,.65-5.04,1.22-7.96,1.22-1.29,0-2.57-.11-3.76-.38h0c-2.42-.54-4.09-1.71-4.7-3.28-.32-.83-.6-2.48,1.15-4.27Zm-38.11,7.17c1.21-1.24,3.03-2.23,5.58-3.02,2.98-.93,7.83-1.71,11.72-.84,2.42,.54,4.09,1.71,4.7,3.28,.32,.83,.6,2.48-1.15,4.27-1.21,1.24-3.03,2.23-5.58,3.02-2.07,.65-5.04,1.22-7.96,1.22-1.29,0-2.57-.11-3.76-.38h0c-2.42-.54-4.09-1.71-4.7-3.28-.32-.83-.6-2.48,1.15-4.27Zm-14.07,109.23c-.5,.11-1,.17-1.52,.17-2.11,0-4.32-.93-6.37-2.69-3.44-2.97-5.75-7.78-5.75-11.97,0-3.9,2.08-6.88,5.3-7.6,2.53-.57,5.33,.33,7.88,2.53,3.44,2.97,5.75,7.78,5.75,11.96,0,3.95-2.03,6.87-5.3,7.6Zm33.37-46.17c2.54-.57,5.33,.33,7.88,2.53,3.44,2.97,5.75,7.77,5.75,11.96,0,3.95-2.03,6.87-5.3,7.6-.5,.11-1,.17-1.52,.17-2.11,0-4.32-.93-6.37-2.69-3.44-2.97-5.75-7.77-5.75-11.96,0-3.96,2.03-6.87,5.3-7.6Zm0,48.16c2.54-.57,5.33,.33,7.88,2.53,3.44,2.97,5.75,7.78,5.75,11.97,0,3.95-2.03,6.87-5.3,7.6-.5,.11-1,.17-1.52,.17-2.11,0-4.32-.93-6.37-2.69-3.44-2.97-5.75-7.77-5.75-11.96,0-3.95,2.03-6.87,5.3-7.6Zm-20.85-35.18c2.54-.57,5.33,.33,7.88,2.53,3.44,2.97,5.75,7.78,5.75,11.96,0,3.96-2.03,6.87-5.3,7.6-.5,.11-1,.17-1.52,.17-2.11,0-4.32-.93-6.37-2.69-3.44-2.97-5.75-7.77-5.75-11.96,0-3.9,2.08-6.88,5.3-7.6Zm-12.97-34.53c3.44,2.97,5.75,7.78,5.75,11.96,0,3.96-2.03,6.87-5.3,7.6-.5,.11-1,.17-1.51,.17-2.11,0-4.32-.93-6.37-2.69-3.44-2.97-5.75-7.78-5.75-11.97,0-3.89,2.08-6.88,5.3-7.6,2.54-.56,5.34,.33,7.88,2.53Z"/><path class="cls-1" d="M175.49,60.46c.02-4.29-1.62-7.29-5.26-9.33-5.61-3.14-11.23-6.25-17.42-9.69l-13.52,7.79c5.64,3.28,11.61,7.07,17.17,10.37,1.11,.66,1.79,1.84,1.79,3.13h0c0,1.33-.72,2.55-1.89,3.19-4.98,2.71-10,5.42-14.96,8.2-12.79,7.18-25.56,14.4-38.33,21.61-4.33,2.45-6.8,5.71-6.76,11.11,.19,24.72,.08,49.44,.08,74.17,0,.15,0,.3,0,.45-.1,5.11,3.62,7.43,8.19,5.14,1.97-.98,3.92-2.02,5.83-3.11,9.41-5.37,18.75-10.87,28.15-16.27,5.14-2.95,10.37-5.77,15.5-8.74,5.42-3.13,10.75-6.41,16.15-9.57,3.6-2.1,5.3-5.02,5.28-9.32-.1-26.38-.1-52.76,0-79.14Zm-33.16,72.89c-2.05,1.77-4.26,2.69-6.37,2.69-.51,0-1.02-.05-1.51-.17-3.27-.73-5.3-3.64-5.3-7.6,0-4.19,2.31-9,5.75-11.96,2.55-2.2,5.35-3.09,7.88-2.52,3.27,.73,5.3,3.64,5.3,7.6,0,4.19-2.31,9-5.75,11.96Z"/></g></g></svg>