<?xml version="1.0" encoding="UTF-8"?><svg id="Layer_2" xmlns="http://www.w3.org/2000/svg" viewBox="0 0 306.64 251.08"><defs><style>.cls-1{fill:#fff;}</style></defs><g id="Logo_Elements"><g><g><path class="cls-1" d="M181.12,51.21c6.75-3.79,13.44-7.7,20.2-11.47,6.77-3.78,13.62-7.41,20.38-11.19,1.54-.86,3.04-1.89,4.3-3.11,2.14-2.07,1.35-5.69-1.46-6.64s-5.62-1.78-8.47-2.53c-10.92-2.86-21.87-5.62-32.78-8.51-5.19-1.37-10.35-2.88-15.53-4.31-4.71-1.3-9.44-3-14.33-3.41-4.62-.38-9.04,1.24-13.06,3.38-4.27,2.27-8.34,4.92-12.5,7.37-6.87,4.02-13.8,7.94-20.67,11.97-.47,.27-.93,.55-1.4,.82-1.58,.93-3.16,1.86-4.74,2.79-8.51,5.02-17.04,10.01-25.43,15.22-7.76,4.81-11.42,12-11.42,21.07,0,24.56,.12,49.12-.08,73.68-.05,6.68,3.06,10.79,8.57,13.77,5.79,3.14,11.58,6.31,17.3,9.59,7.43,4.26,14.76,8.69,22.17,12.97,7.71,4.45,15.52,8.71,23.19,13.23,5.47,3.23,9.04,.4,8.87-4.82,0-.17,0-.33,0-.5,0-24.89,.02-49.78-.02-74.67,0-4.02-1.51-7.38-5.19-9.48-6.43-3.68-12.83-7.43-19.29-11.06-11.64-6.55-23.32-13.04-34.98-19.54-3.79-2.11-5.67-6.02-4.38-10.01,.66-2.06,2.15-3.88,4.55-4.06,2.3-.17,4.72-.25,6.93,.3,18.9,4.65,37.75,9.47,56.65,14.14,1.5,.37,3.36,.37,4.77-.18,3.04-1.19,5.93-2.77,8.81-4.32,6.38-3.45,12.74-6.95,19.07-10.5Zm-3.82-27.66c1.21-1.24,3.03-2.23,5.58-3.02,2.98-.93,7.83-1.71,11.72-.84,2.42,.54,4.09,1.71,4.7,3.28,.32,.83,.6,2.48-1.15,4.27-1.21,1.24-3.03,2.23-5.58,3.02-2.07,.65-5.04,1.22-7.96,1.22-1.29,0-2.57-.11-3.76-.38h0c-2.42-.54-4.09-1.71-4.7-3.28-.32-.83-.6-2.48,1.15-4.27Zm-37.8,6.64c1.21-1.24,3.03-2.23,5.58-3.02,2.98-.93,7.83-1.71,11.72-.84,2.42,.54,4.09,1.71,4.7,3.28,.32,.83,.6,2.48-1.15,4.27-1.21,1.24-3.03,2.23-5.58,3.02-2.07,.65-5.04,1.22-7.96,1.22-1.29,0-2.57-.11-3.76-.38h0c-2.42-.54-4.09-1.71-4.7-3.28-.32-.83-.6-2.48,1.15-4.27Zm-38.11,7.17c1.21-1.24,3.03-2.23,5.58-3.02,2.98-.93,7.83-1.71,11.72-.84,2.42,.54,4.09,1.71,4.7,3.28,.32,.83,.6,2.48-1.15,4.27-1.21,1.24-3.03,2.23-5.58,3.02-2.07,.65-5.04,1.22-7.96,1.22-1.29,0-2.57-.11-3.76-.38h0c-2.42-.54-4.09-1.71-4.7-3.28-.32-.83-.6-2.48,1.15-4.27Zm-14.07,109.23c-.5,.11-1,.17-1.52,.17-2.11,0-4.32-.93-6.37-2.69-3.44-2.97-5.75-7.78-5.75-11.97,0-3.9,2.08-6.88,5.3-7.6,2.53-.57,5.33,.33,7.88,2.53,3.44,2.97,5.75,7.78,5.75,11.96,0,3.95-2.03,6.87-5.3,7.6Zm33.37-46.17c2.54-.57,5.33,.33,7.88,2.53,3.44,2.97,5.75,7.77,5.75,11.96,0,3.95-2.03,6.87-5.3,7.6-.5,.11-1,.17-1.52,.17-2.11,0-4.32-.93-6.37-2.69-3.44-2.97-5.75-7.77-5.75-11.96,0-3.96,2.03-6.87,5.3-7.6Zm0,48.16c2.54-.57,5.33,.33,7.88,2.53,3.44,2.97,5.75,7.78,5.75,11.97,0,3.95-2.03,6.87-5.3,7.6-.5,.11-1,.17-1.52,.17-2.11,0-4.32-.93-6.37-2.69-3.44-2.97-5.75-7.77-5.75-11.96,0-3.95,2.03-6.87,5.3-7.6Zm-20.85-35.18c2.54-.57,5.33,.33,7.88,2.53,3.44,2.97,5.75,7.78,5.75,11.96,0,3.96-2.03,6.87-5.3,7.6-.5,.11-1,.17-1.52,.17-2.11,0-4.32-.93-6.37-2.69-3.44-2.97-5.75-7.77-5.75-11.96,0-3.9,2.08-6.88,5.3-7.6Zm-12.97-34.53c3.44,2.97,5.75,7.78,5.75,11.96,0,3.96-2.03,6.87-5.3,7.6-.5,.11-1,.17-1.51,.17-2.11,0-4.32-.93-6.37-2.69-3.44-2.97-5.75-7.78-5.75-11.97,0-3.89,2.08-6.88,5.3-7.6,2.54-.56,5.34,.33,7.88,2.53Z"/><path class="cls-1" d="M239.12,59.96c.02-4.29-1.62-7.29-5.26-9.33-5.61-3.14-11.23-6.25-17.42-9.69l-13.52,7.79c5.64,3.28,11.61,7.07,17.17,10.37,1.11,.66,1.79,1.84,1.79,3.13h0c0,1.33-.72,2.55-1.89,3.19-4.98,2.71-10,5.42-14.96,8.2-12.79,7.18-25.56,14.4-38.33,21.61-4.33,2.45-6.8,5.71-6.76,11.11,.19,24.72,.08,49.44,.08,74.17,0,.15,0,.3,0,.45-.1,5.11,3.62,7.43,8.19,5.14,1.97-.98,3.92-2.02,5.83-3.11,9.41-5.37,18.75-10.87,28.15-16.27,5.14-2.95,10.37-5.77,15.5-8.74,5.42-3.13,10.75-6.41,16.15-9.57,3.6-2.1,5.3-5.02,5.28-9.32-.1-26.38-.1-52.76,0-79.14Zm-33.16,72.89c-2.05,1.77-4.26,2.69-6.37,2.69-.51,0-1.02-.05-1.51-.17-3.27-.73-5.3-3.64-5.3-7.6,0-4.19,2.31-9,5.75-11.96,2.55-2.2,5.35-3.09,7.88-2.52,3.27,.73,5.3,3.64,5.3,7.6,0,4.19-2.31,9-5.75,11.96Z"/></g><g><path class="cls-1" d="M13.86,234.85h-3.92v15.89H4.16v-15.89H0l.34-5.11H14.2l-.34,5.11Z"/><path class="cls-1" d="M31.04,250.74h-5.75v-7.95h-3.96v7.95h-5.82v-21h5.82v8.25h3.96v-8.25h5.75v21Z"/><path class="cls-1" d="M45.24,250.74h-11.36v-21h11.7l-.34,5.17h-5.58v3.14h4.84v4.46h-4.84v3.48h5.92l-.34,4.73Z"/><path class="cls-1" d="M65.32,250.74h-10.68v-21h5.78v16.3h5.24l-.34,4.7Z"/><path class="cls-1" d="M68.15,231.95c1.3-1.69,3.42-2.54,6.37-2.54s5.07,.83,6.34,2.5c1.27,1.67,1.91,4.38,1.91,8.13s-.65,6.53-1.96,8.33c-1.31,1.8-3.43,2.7-6.36,2.7s-5.04-.89-6.32-2.67c-1.28-1.78-1.93-4.55-1.93-8.3s.65-6.47,1.94-8.17Zm8.32,3.91c-.33-.73-.99-1.1-1.99-1.1s-1.65,.37-1.94,1.1c-.29,.73-.44,2.12-.44,4.18v.81c0,2.19,.16,3.62,.49,4.31,.33,.69,.99,1.03,1.99,1.03s1.65-.33,1.94-.98c.29-.65,.44-2.01,.44-4.06v-1.08c0-2.07-.16-3.48-.49-4.21Z"/><path class="cls-1" d="M100.39,250.74h-5.55l-4.36-9.77h-.27v9.77h-5.14v-21h5.71l4.16,10.08h.27v-10.08h5.17v21Z"/><path class="cls-1" d="M116.01,236c-2.16-.65-3.75-.98-4.75-.98s-1.69,.44-2.06,1.32-.56,2.27-.56,4.18,.17,3.29,.52,4.16c.35,.87,1.07,1.3,2.15,1.3,.32,0,.92-.09,1.83-.27v-2.57h-1.52v-3.99h6.46v11.6h-3.99l-.54-1.08h-.14c-.38,.32-.69,.55-.91,.71-.63,.47-1.52,.71-2.67,.71-4.71,0-7.07-3.56-7.07-10.68,0-3.56,.62-6.28,1.86-8.17,1.24-1.88,3.32-2.82,6.26-2.82,2.34,0,4.36,.36,6.05,1.08l-.91,5.51Z"/><path class="cls-1" d="M140.66,236c-2.16-.65-3.75-.98-4.75-.98s-1.69,.44-2.06,1.32-.56,2.27-.56,4.18,.17,3.29,.52,4.16c.35,.87,1.07,1.3,2.15,1.3,.32,0,.92-.09,1.83-.27v-2.57h-1.52v-3.99h6.46v11.6h-3.99l-.54-1.08h-.14c-.38,.32-.69,.55-.91,.71-.63,.47-1.52,.71-2.67,.71-4.71,0-7.07-3.56-7.07-10.68,0-3.56,.62-6.28,1.86-8.17,1.24-1.88,3.32-2.82,6.26-2.82,2.34,0,4.36,.36,6.05,1.08l-.91,5.51Z"/><path class="cls-1" d="M160.64,250.74h-5.65l-.64-3.31h-3.99l-.64,3.31h-5.38l3.85-21h8.59l3.85,21Zm-6.93-7.27l-1.18-7.51h-.24l-1.18,7.51h2.6Z"/><path class="cls-1" d="M182.72,250.74h-5.31v-10.96h-.3l-1.99,10.96h-5.44l-1.89-10.96h-.34v10.96h-5.24l.71-21h7.61l1.89,11.36h.27l1.83-11.36h7.51l.71,21Z"/><path class="cls-1" d="M196.85,250.74h-11.36v-21h11.7l-.34,5.17h-5.58v3.14h4.84v4.46h-4.84v3.48h5.92l-.34,4.73Z"/><path class="cls-1" d="M213.49,243.88h-1.56v6.86h-5.68v-21h6.86c2.41,0,4.2,.55,5.38,1.66,1.17,1.1,1.76,2.92,1.76,5.44s-.55,4.33-1.66,5.41c-1.1,1.08-2.81,1.62-5.11,1.62Zm.64-4.56c.2-.38,.3-1.07,.3-2.06s-.11-1.69-.34-2.1c-.23-.41-.68-.61-1.35-.61h-.81v5.34h.95c.63,0,1.05-.19,1.25-.57Z"/><path class="cls-1" d="M236.31,236.41c0,1.26-.19,2.31-.57,3.14-.38,.83-.98,1.59-1.79,2.27l2.81,8.93h-6.26l-2.1-7.57h-.78v7.57h-5.68v-21h7.84c2.25,0,3.91,.53,4.95,1.59,1.05,1.06,1.57,2.75,1.57,5.07Zm-6.56,2.7c.25-.34,.37-.95,.37-1.84s-.12-1.51-.37-1.86c-.25-.35-.65-.52-1.22-.52h-.91v4.73h.88c.59,0,1-.17,1.25-.51Z"/><path class="cls-1" d="M239.91,231.95c1.3-1.69,3.42-2.54,6.37-2.54s5.07,.83,6.34,2.5c1.27,1.67,1.91,4.38,1.91,8.13s-.65,6.53-1.96,8.33c-1.31,1.8-3.43,2.7-6.36,2.7s-5.04-.89-6.32-2.67c-1.28-1.78-1.93-4.55-1.93-8.3s.65-6.47,1.94-8.17Zm8.32,3.91c-.33-.73-.99-1.1-1.99-1.1s-1.65,.37-1.94,1.1c-.29,.73-.44,2.12-.44,4.18v.81c0,2.19,.16,3.62,.49,4.31,.33,.69,.99,1.03,1.99,1.03s1.65-.33,1.94-.98c.29-.65,.44-2.01,.44-4.06v-1.08c0-2.07-.16-3.48-.49-4.21Z"/><path class="cls-1" d="M263.59,229.75v16.77c0,1.74-.39,2.93-1.18,3.58-.79,.65-2.24,.98-4.36,.98h-1.72l-.44-4.6h1.15c.38,0,.63-.05,.73-.15s.15-.32,.15-.66v-15.93h5.68Z"/><path class="cls-1" d="M277.93,250.74h-11.36v-21h11.7l-.34,5.17h-5.58v3.14h4.84v4.46h-4.84v3.48h5.92l-.34,4.73Z"/><path class="cls-1" d="M285.44,240.45c0,2,.2,3.42,.59,4.26,.39,.85,1.04,1.27,1.94,1.27s2.18-.21,3.82-.64l.88,4.77c-1.78,.65-3.57,.98-5.38,.98-2.7,0-4.67-.9-5.9-2.69-1.23-1.79-1.84-4.46-1.84-8.01s.64-6.27,1.93-8.15c1.28-1.88,3.38-2.82,6.29-2.82,1.71,0,3.35,.36,4.9,1.08l-.91,5.24c-1.76-.59-2.99-.88-3.69-.88-.99,0-1.68,.43-2.06,1.3-.38,.87-.57,2.3-.57,4.29Z"/><path class="cls-1" d="M306.3,234.85h-3.92v15.89h-5.78v-15.89h-4.16l.34-5.11h13.86l-.34,5.11Z"/></g></g></g></svg>