<?xml version="1.0" encoding="UTF-8"?><svg id="Layer_2" xmlns="http://www.w3.org/2000/svg" viewBox="0 0 269.68 132.09"><defs><style>.cls-1{fill:#fff;}</style></defs><g id="Logo_Elements"><g><path class="cls-1" d="M82.89,3.39c.96-.99,2.43-1.78,4.47-2.42,2.38-.74,6.27-1.37,9.37-.67,1.94,.43,3.27,1.36,3.76,2.62,.26,.66,.48,1.98-.92,3.42-.97,.99-2.43,1.78-4.47,2.42-1.65,.52-4.03,.97-6.37,.97-1.03,0-2.06-.09-3.01-.3h0c-1.94-.43-3.27-1.36-3.76-2.62-.26-.66-.48-1.98,.92-3.41Z"/><path class="cls-1" d="M52.65,8.7c.96-.99,2.43-1.78,4.47-2.42,2.38-.74,6.27-1.37,9.37-.67,1.94,.43,3.27,1.36,3.76,2.62,.26,.66,.48,1.98-.92,3.42-.97,.99-2.43,1.78-4.47,2.42-1.65,.52-4.03,.97-6.37,.97-1.03,0-2.06-.09-3.01-.3h0c-1.94-.43-3.27-1.36-3.76-2.62-.26-.66-.48-1.98,.92-3.41Z"/><path class="cls-1" d="M22.16,14.44c.96-.99,2.43-1.78,4.47-2.42,2.38-.74,6.27-1.37,9.37-.67,1.94,.43,3.27,1.36,3.76,2.62,.26,.66,.48,1.98-.92,3.42-.97,.99-2.43,1.78-4.47,2.42-1.65,.52-4.03,.97-6.37,.97-1.03,0-2.06-.09-3.01-.3h0c-1.94-.43-3.27-1.36-3.76-2.62-.26-.66-.48-1.98,.92-3.41Z"/><path class="cls-1" d="M10.91,101.82c-.4,.09-.8,.13-1.21,.13-1.69,0-3.45-.74-5.09-2.15-2.75-2.37-4.6-6.22-4.6-9.57,0-3.12,1.67-5.5,4.24-6.08,2.03-.45,4.27,.26,6.3,2.02,2.75,2.37,4.6,6.22,4.6,9.57,0,3.16-1.62,5.49-4.24,6.08Z"/><path class="cls-1" d="M10.91,63.3c-.4,.09-.8,.13-1.21,.13-1.68,0-3.45-.74-5.09-2.15-2.75-2.37-4.6-6.22-4.6-9.57,0-3.12,1.66-5.5,4.24-6.08,2.03-.45,4.27,.26,6.31,2.02,2.75,2.37,4.6,6.22,4.6,9.57,0,3.16-1.63,5.49-4.24,6.08Z"/><path class="cls-1" d="M27.59,92.94c-.4,.09-.8,.13-1.21,.13-1.68,0-3.45-.74-5.09-2.15-2.75-2.37-4.6-6.22-4.6-9.57,0-3.12,1.67-5.5,4.24-6.08,2.03-.45,4.27,.26,6.3,2.02,2.75,2.37,4.6,6.22,4.6,9.57,0,3.16-1.63,5.49-4.24,6.08Z"/><path class="cls-1" d="M43.06,121.22c-1.69,0-3.45-.74-5.09-2.15-2.75-2.37-4.6-6.22-4.6-9.57,0-3.16,1.63-5.49,4.24-6.08,2.03-.45,4.27,.26,6.3,2.02,2.75,2.37,4.6,6.22,4.6,9.57,0,3.16-1.63,5.49-4.24,6.08-.4,.09-.8,.13-1.21,.13Z"/><path class="cls-1" d="M33.36,70.97c0-3.16,1.63-5.49,4.24-6.08,2.03-.45,4.27,.26,6.3,2.02,2.75,2.37,4.6,6.22,4.6,9.57,0,3.16-1.62,5.49-4.24,6.08-.4,.09-.8,.13-1.21,.13-1.69,0-3.45-.74-5.09-2.15-2.75-2.37-4.6-6.22-4.6-9.57Z"/><path class="cls-1" d="M105.82,90.83c-1.64,1.41-3.41,2.15-5.09,2.15-.41,0-.81-.04-1.21-.13-2.62-.59-4.24-2.91-4.24-6.08,0-3.35,1.85-7.2,4.6-9.57,2.04-1.76,4.28-2.48,6.31-2.02,2.62,.58,4.24,2.91,4.24,6.08,0,3.35-1.85,7.2-4.6,9.57Z"/><path class="cls-1" d="M117.13,31.83c-4.25-2.52-8.81-5.4-21.35-11.81h-.15c-3.22,1.84-6.44,3.69-9.68,5.5-5.06,2.84-10.15,5.64-15.25,8.4-2.3,1.25-4.62,2.51-7.05,3.46-1.13,.44-2.62,.44-3.82,.15-15.12-3.73-30.2-7.59-45.32-11.31-1.76-.43-3.7-.37-5.54-.24-1.91,.14-3.11,1.6-3.64,3.24-1.02,3.19,.47,6.31,3.51,8,9.33,5.2,18.67,10.4,27.99,15.63,5.17,2.91,10.29,5.9,15.43,8.85,2.94,1.69,4.15,4.37,4.15,7.59,.04,19.91,.02,34.66,.02,54.58,0,.13,0,.27,0,.4v1.51c0,3.49,2.83,6.32,6.32,6.32h0c3.49,0,6.32-2.83,6.32-6.32v-1.75c0-.56,0,.03,0-.07,0-19.78,.08-34.55-.07-54.32-.03-4.31,1.94-6.93,5.41-8.89,10.22-5.76,20.43-11.55,30.66-17.29,3.93-2.21,7.9-4.35,11.85-6.5,.68-.37,1.25-.96,1.49-1.7,.44-1.36-.14-2.74-1.29-3.42Z"/><g><path class="cls-1" d="M164.57,9.28h-4.68V28.22h-6.89V9.28h-4.96l.4-6.09h16.52l-.4,6.09Z"/><path class="cls-1" d="M185.04,28.22h-6.85v-9.47h-4.72v9.47h-6.93V3.19h6.93V13.02h4.72V3.19h6.85V28.22Z"/><path class="cls-1" d="M201.97,28.22h-13.54V3.19h13.95l-.4,6.17h-6.65v3.75h5.76v5.32h-5.76v4.15h7.05l-.4,5.64Z"/><path class="cls-1" d="M162.76,57.44h-12.74v-25.03h6.89v19.43h6.25l-.4,5.6Z"/><path class="cls-1" d="M166.12,35.03c1.54-2.02,4.08-3.02,7.6-3.02s6.04,.99,7.56,2.98c1.52,1.99,2.28,5.22,2.28,9.69s-.78,7.79-2.34,9.93c-1.56,2.15-4.08,3.22-7.58,3.22s-6.01-1.06-7.54-3.18c-1.53-2.12-2.3-5.42-2.3-9.89s.77-7.72,2.32-9.73Zm9.91,4.66c-.39-.87-1.18-1.31-2.38-1.31s-1.97,.44-2.32,1.31c-.35,.87-.52,2.53-.52,4.98v.97c0,2.61,.19,4.32,.58,5.14,.39,.82,1.18,1.23,2.38,1.23s1.97-.39,2.32-1.17c.35-.78,.52-2.39,.52-4.84v-1.29c0-2.47-.2-4.14-.58-5.02Z"/><path class="cls-1" d="M204.55,57.44h-6.61l-5.2-11.65h-.32v11.65h-6.13v-25.03h6.81l4.96,12.01h.32v-12.01h6.17v25.03Z"/><path class="cls-1" d="M223.17,39.87c-2.58-.78-4.47-1.17-5.66-1.17s-2.02,.52-2.46,1.57c-.44,1.05-.66,2.71-.66,4.98s.21,3.92,.62,4.96c.42,1.03,1.27,1.55,2.56,1.55,.38,0,1.1-.11,2.18-.32v-3.06h-1.81v-4.76h7.7v13.82h-4.76l-.64-1.29h-.16c-.46,.38-.82,.66-1.09,.85-.75,.56-1.81,.85-3.18,.85-5.62,0-8.42-4.25-8.42-12.74,0-4.25,.74-7.49,2.22-9.73,1.48-2.24,3.96-3.37,7.46-3.37,2.79,0,5.2,.43,7.21,1.29l-1.09,6.57Z"/><path class="cls-1" d="M165.09,69.09c-2.58-.78-4.47-1.17-5.66-1.17s-2.02,.52-2.46,1.57c-.44,1.05-.66,2.71-.66,4.98s.21,3.92,.62,4.96c.42,1.03,1.27,1.55,2.56,1.55,.38,0,1.1-.11,2.18-.32v-3.06h-1.81v-4.76h7.7v13.82h-4.76l-.64-1.29h-.16c-.46,.38-.82,.66-1.09,.85-.75,.56-1.81,.85-3.18,.85-5.62,0-8.42-4.25-8.42-12.74,0-4.25,.74-7.49,2.22-9.73,1.48-2.24,3.96-3.37,7.46-3.37,2.79,0,5.2,.43,7.21,1.29l-1.09,6.57Z"/><path class="cls-1" d="M188.91,86.66h-6.73l-.77-3.95h-4.76l-.77,3.95h-6.41l4.59-25.03h10.24l4.59,25.03Zm-8.26-8.67l-1.41-8.95h-.28l-1.41,8.95h3.1Z"/><path class="cls-1" d="M215.23,86.66h-6.33v-13.06h-.36l-2.38,13.06h-6.49l-2.26-13.06h-.4v13.06h-6.25l.85-25.03h9.07l2.26,13.54h.32l2.18-13.54h8.95l.85,25.03Z"/><path class="cls-1" d="M232.08,86.66h-13.54v-25.03h13.95l-.4,6.17h-6.65v3.75h5.76v5.32h-5.76v4.15h7.05l-.4,5.64Z"/><path class="cls-1" d="M158.64,107.7h-1.85v8.18h-6.77v-25.03h8.18c2.87,0,5.01,.66,6.41,1.97,1.4,1.32,2.1,3.48,2.1,6.49s-.66,5.16-1.97,6.45c-1.32,1.29-3.35,1.93-6.09,1.93Zm.77-5.44c.24-.46,.36-1.28,.36-2.46s-.13-2.02-.4-2.5c-.27-.48-.81-.73-1.61-.73h-.97v6.37h1.13c.75,0,1.25-.23,1.49-.69Z"/><path class="cls-1" d="M185.85,98.79c0,1.51-.23,2.75-.69,3.75-.46,.99-1.17,1.89-2.14,2.7l3.35,10.64h-7.46l-2.5-9.03h-.93v9.03h-6.77v-25.03h9.35c2.69,0,4.65,.63,5.9,1.89,1.25,1.26,1.87,3.28,1.87,6.05Zm-7.82,3.22c.3-.4,.44-1.13,.44-2.2s-.15-1.8-.44-2.22c-.3-.42-.78-.62-1.45-.62h-1.09v5.64h1.05c.7,0,1.2-.2,1.49-.6Z"/><path class="cls-1" d="M190.14,93.47c1.54-2.02,4.08-3.02,7.6-3.02s6.04,.99,7.56,2.98c1.52,1.99,2.28,5.22,2.28,9.69s-.78,7.79-2.34,9.93c-1.56,2.15-4.08,3.22-7.58,3.22s-6.01-1.06-7.54-3.18c-1.53-2.12-2.3-5.42-2.3-9.89s.77-7.72,2.32-9.73Zm9.91,4.66c-.39-.87-1.18-1.31-2.38-1.31s-1.97,.44-2.32,1.31c-.35,.87-.52,2.53-.52,4.98v.97c0,2.61,.19,4.32,.58,5.14,.39,.82,1.18,1.23,2.38,1.23s1.97-.39,2.32-1.17c.35-.78,.52-2.39,.52-4.84v-1.29c0-2.47-.2-4.14-.58-5.02Z"/><path class="cls-1" d="M218.37,90.85v19.99c0,2.07-.47,3.49-1.41,4.27-.94,.78-2.67,1.17-5.2,1.17h-2.06l-.52-5.48h1.37c.46,0,.75-.06,.87-.18,.12-.12,.18-.38,.18-.79v-18.98h6.77Z"/><path class="cls-1" d="M235.46,115.88h-13.54v-25.03h13.95l-.4,6.17h-6.65v3.75h5.76v5.32h-5.76v4.15h7.05l-.4,5.64Z"/><path class="cls-1" d="M244.41,103.61c0,2.38,.23,4.07,.71,5.08,.47,1.01,1.24,1.51,2.32,1.51s2.59-.26,4.55-.77l1.05,5.68c-2.12,.78-4.26,1.17-6.41,1.17-3.22,0-5.57-1.07-7.03-3.2-1.46-2.14-2.2-5.32-2.2-9.55s.77-7.47,2.3-9.71c1.53-2.24,4.03-3.37,7.5-3.37,2.04,0,3.99,.43,5.84,1.29l-1.09,6.25c-2.1-.7-3.56-1.05-4.39-1.05-1.18,0-2,.52-2.46,1.55-.46,1.03-.69,2.74-.69,5.12Z"/><path class="cls-1" d="M269.27,96.94h-4.68v18.94h-6.89v-18.94h-4.96l.4-6.09h16.52l-.4,6.09Z"/></g></g></g></svg>