<?xml version="1.0" encoding="UTF-8"?><svg id="Layer_2" xmlns="http://www.w3.org/2000/svg" viewBox="0 0 306.64 251.58"><defs><style>.cls-1{fill:#fff;}.cls-2{fill:#1A3A3A;}</style></defs><g id="Logo_Elements"><g><g><g><path class="cls-1" d="M239.12,139.6c.02,4.3-1.68,7.22-5.28,9.32-5.41,3.15-10.74,6.43-16.16,9.57-5.13,2.97-10.35,5.78-15.5,8.74-9.39,5.39-18.73,10.89-28.14,16.26-1.91,1.09-3.86,2.13-5.83,3.11-.72,.36-1.42,.59-2.09,.73-3.9,2.19-8.92,3.5-14.39,3.5s-10.4-1.29-14.29-3.44c-.66-.22-1.35-.54-2.09-.97-7.66-4.52-15.48-8.78-23.18-13.23-7.42-4.28-14.75-8.71-22.18-12.97-5.71-3.28-11.5-6.45-17.3-9.59-5.5-2.99-8.62-7.1-8.56-13.78,.2-24.55,.08-49.11,.08-73.67,0-9.07,3.66-16.26,11.42-21.07,8.39-5.2,16.92-10.19,25.43-15.22l4.74-2.79c.46-.27,.93-.55,1.4-.82,6.86-4.04,13.79-7.95,20.66-11.98,4.17-2.44,8.24-5.1,12.51-7.36,4.02-2.14,8.43-3.77,13.06-3.38,4.89,.4,9.62,2.11,14.33,3.4,5.18,1.43,10.34,2.93,15.53,4.31,10.91,2.88,21.86,5.65,32.78,8.51,2.85,.75,5.68,1.59,8.47,2.53,2.82,.95,3.6,4.57,1.46,6.64-1.25,1.21-2.76,2.24-4.3,3.1-4.86,2.72-9.75,5.37-14.64,8.04,16.07,8.07,21.45,11.05,26.8,14.04,3.64,2.04,5.28,5.04,5.26,9.33-.1,26.38-.11,52.76,0,79.14Zm-17.42-75.72c.55-1.7-.17-3.43-1.6-4.28-5.32-3.15-11.01-6.75-26.69-14.77-.06,.01-.12,.01-.19,.01-4.03,2.3-8.05,4.61-12.1,6.87-6.33,3.55-12.68,7.05-19.07,10.5-2.87,1.56-5.77,3.14-8.81,4.32-1.41,.55-3.27,.56-4.77,.18-18.89-4.66-37.75-9.49-56.65-14.14-2.2-.54-4.63-.46-6.92-.29-2.4,.17-3.89,1.99-4.55,4.05-1.28,3.99,.59,7.89,4.38,10.01,11.67,6.5,23.35,12.99,34.99,19.54,6.46,3.63,12.86,7.38,19.29,11.06,3.68,2.11,5.19,5.47,5.19,9.48,.05,24.9,.03,43.33,.03,68.23,0,.16,0,.33,0,.49v1.89c0,4.36,3.53,7.9,7.89,7.9,2.18,0,4.15-.89,5.59-2.31,1.42-1.44,2.31-3.41,2.31-5.59v-2.28c0-24.73,.11-43.19-.08-67.91-.04-5.39,2.42-8.66,6.76-11.11,12.77-7.2,25.54-14.43,38.33-21.6,4.92-2.76,9.88-5.44,14.81-8.12,.85-.47,1.57-1.2,1.86-2.13Zm-9.98,57.51c0-3.96-2.04-6.87-5.31-7.6-2.53-.57-5.33,.33-7.88,2.53-3.44,2.96-5.75,7.77-5.75,11.96,0,3.96,2.03,6.87,5.3,7.6,.5,.11,1,.17,1.51,.17,2.11,0,4.32-.93,6.37-2.7,3.44-2.96,5.76-7.77,5.76-11.96Zm-13.58-93.66c1.75-1.79,1.47-3.44,1.15-4.26-.61-1.58-2.27-2.74-4.69-3.28-3.88-.87-8.74-.09-11.72,.84-2.55,.8-4.38,1.78-5.58,3.02-1.75,1.79-1.47,3.45-1.15,4.27,.3,.78,.88,1.47,1.67,2.03,.8,.55,1.82,.98,3.03,1.25,1.18,.26,2.46,.38,3.75,.38,2.92,0,5.89-.58,7.96-1.22,2.55-.8,4.38-1.79,5.58-3.03Zm-37.79,6.64c1.74-1.79,1.46-3.44,1.14-4.27-.61-1.57-2.27-2.73-4.69-3.27-3.88-.87-8.74-.09-11.72,.84-2.55,.79-4.38,1.78-5.58,3.02-1.75,1.79-1.47,3.44-1.15,4.27,.3,.78,.88,1.47,1.67,2.02,.8,.56,1.82,.98,3.03,1.26,1.18,.26,2.46,.37,3.75,.37,2.92,0,5.89-.57,7.96-1.21,2.55-.8,4.38-1.79,5.59-3.03Zm-31.32,88.64c3.27-.73,5.3-3.64,5.3-7.6,0-4.19-2.31-8.99-5.75-11.96-2.55-2.2-5.34-3.09-7.88-2.53-3.27,.73-5.31,3.64-5.31,7.6,0,4.19,2.32,9,5.76,11.96,2.05,1.77,4.26,2.7,6.36,2.7,.52,0,1.02-.06,1.52-.17Zm0,48.16c3.27-.73,5.3-3.65,5.3-7.6,0-4.19-2.31-9-5.75-11.97-2.55-2.19-5.35-3.09-7.88-2.52-3.27,.73-5.31,3.64-5.31,7.6,0,4.19,2.32,8.99,5.76,11.96,2.05,1.77,4.26,2.69,6.36,2.69,.52,0,1.02-.05,1.52-.16Zm-6.79-129.63c1.74-1.79,1.47-3.44,1.15-4.27-.61-1.57-2.28-2.73-4.7-3.27-3.88-.87-8.73-.09-11.71,.84-2.56,.79-4.38,1.78-5.59,3.02-1.74,1.79-1.47,3.44-1.15,4.27,.31,.79,.87,1.47,1.67,2.02,.8,.56,1.82,.99,3.03,1.26,1.19,.26,2.47,.37,3.76,.37,2.92,0,5.89-.57,7.95-1.21,2.55-.8,4.38-1.79,5.59-3.03Zm-14.06,94.45c3.27-.73,5.3-3.64,5.3-7.6,0-4.19-2.31-9-5.76-11.96-2.54-2.2-5.34-3.1-7.88-2.53-3.22,.72-5.3,3.7-5.3,7.6,0,4.19,2.31,9,5.75,11.96,2.05,1.77,4.26,2.7,6.37,2.7,.51,0,1.02-.06,1.52-.17Zm-20.86-37.06c3.27-.73,5.31-3.64,5.31-7.6,0-4.18-2.32-8.99-5.76-11.96-2.54-2.19-5.34-3.09-7.88-2.53-3.22,.73-5.3,3.71-5.3,7.6,0,4.19,2.31,9,5.75,11.97,2.05,1.76,4.26,2.69,6.37,2.69,.51,0,1.02-.06,1.51-.17Zm0,48.16c3.28-.73,5.31-3.64,5.31-7.6,0-4.19-2.32-9-5.76-11.96-2.54-2.2-5.34-3.1-7.88-2.53-3.22,.72-5.3,3.7-5.3,7.6,0,4.19,2.31,9,5.75,11.96,2.05,1.77,4.26,2.69,6.37,2.69,.51,0,1.02-.05,1.51-.16Z"/><path class="cls-2" d="M220.1,59.6c1.43,.85,2.15,2.58,1.6,4.28-.29,.93-1.01,1.66-1.86,2.13-4.93,2.68-9.89,5.36-14.81,8.12-12.79,7.17-25.56,14.4-38.33,21.6-4.34,2.45-6.8,5.72-6.76,11.11,.19,24.72,.08,43.18,.08,67.91v2.28c0,2.18-.89,4.15-2.31,5.59-1.44,1.42-3.41,2.31-5.59,2.31-4.36,0-7.89-3.54-7.89-7.9v-1.89c0-.16,0-.33,0-.49,0-24.9,.02-43.33-.03-68.23,0-4.01-1.51-7.37-5.19-9.48-6.43-3.68-12.83-7.43-19.29-11.06-11.64-6.55-23.32-13.04-34.99-19.54-3.79-2.12-5.66-6.02-4.38-10.01,.66-2.06,2.15-3.88,4.55-4.05,2.29-.17,4.72-.25,6.92,.29,18.9,4.65,37.76,9.48,56.65,14.14,1.5,.38,3.36,.37,4.77-.18,3.04-1.18,5.94-2.76,8.81-4.32,6.39-3.45,12.74-6.95,19.07-10.5,4.05-2.26,8.07-4.57,12.1-6.87,.07,0,.13,0,.19-.01,15.68,8.02,21.37,11.62,26.69,14.77Z"/><path class="cls-2" d="M206.41,113.79c3.27,.73,5.31,3.64,5.31,7.6,0,4.19-2.32,9-5.76,11.96-2.05,1.77-4.26,2.7-6.37,2.7-.51,0-1.01-.06-1.51-.17-3.27-.73-5.3-3.64-5.3-7.6,0-4.19,2.31-9,5.75-11.96,2.55-2.2,5.35-3.1,7.88-2.53Z"/><path class="cls-2" d="M199.29,23.47c.32,.82,.6,2.47-1.15,4.26-1.2,1.24-3.03,2.23-5.58,3.03-2.07,.64-5.04,1.22-7.96,1.22-1.29,0-2.57-.12-3.75-.38-1.21-.27-2.23-.7-3.03-1.25-.79-.56-1.37-1.25-1.67-2.03-.32-.82-.6-2.48,1.15-4.27,1.2-1.24,3.03-2.22,5.58-3.02,2.98-.93,7.84-1.71,11.72-.84,2.42,.54,4.08,1.7,4.69,3.28Z"/><path class="cls-2" d="M161.49,30.1c.32,.83,.6,2.48-1.14,4.27-1.21,1.24-3.04,2.23-5.59,3.03-2.07,.64-5.04,1.21-7.96,1.21-1.29,0-2.57-.11-3.75-.37-1.21-.28-2.23-.7-3.03-1.26-.79-.55-1.37-1.24-1.67-2.02-.32-.83-.6-2.48,1.15-4.27,1.2-1.24,3.03-2.23,5.58-3.02,2.98-.93,7.84-1.71,11.72-.84,2.42,.54,4.08,1.7,4.69,3.27Z"/><path class="cls-2" d="M134.33,115.41c0,3.96-2.03,6.87-5.3,7.6-.5,.11-1,.17-1.52,.17-2.1,0-4.31-.93-6.36-2.7-3.44-2.96-5.76-7.77-5.76-11.96,0-3.96,2.04-6.87,5.31-7.6,2.54-.56,5.33,.33,7.88,2.53,3.44,2.97,5.75,7.77,5.75,11.96Z"/><path class="cls-2" d="M134.33,163.57c0,3.95-2.03,6.87-5.3,7.6-.5,.11-1,.16-1.52,.16-2.1,0-4.31-.92-6.36-2.69-3.44-2.97-5.76-7.77-5.76-11.96,0-3.96,2.04-6.87,5.31-7.6,2.53-.57,5.33,.33,7.88,2.52,3.44,2.97,5.75,7.78,5.75,11.97Z"/><path class="cls-2" d="M123.39,37.27c.32,.83,.59,2.48-1.15,4.27-1.21,1.24-3.04,2.23-5.59,3.03-2.06,.64-5.03,1.21-7.95,1.21-1.29,0-2.57-.11-3.76-.37-1.21-.27-2.23-.7-3.03-1.26-.8-.55-1.36-1.23-1.67-2.02-.32-.83-.59-2.48,1.15-4.27,1.21-1.24,3.03-2.23,5.59-3.02,2.98-.93,7.83-1.71,11.71-.84,2.42,.54,4.09,1.7,4.7,3.27Z"/><path class="cls-2" d="M113.48,128.39c0,3.96-2.03,6.87-5.3,7.6-.5,.11-1.01,.17-1.52,.17-2.11,0-4.32-.93-6.37-2.7-3.44-2.96-5.75-7.77-5.75-11.96,0-3.9,2.08-6.88,5.3-7.6,2.54-.57,5.34,.33,7.88,2.53,3.45,2.96,5.76,7.77,5.76,11.96Z"/><path class="cls-2" d="M92.63,91.33c0,3.96-2.04,6.87-5.31,7.6-.49,.11-1,.17-1.51,.17-2.11,0-4.32-.93-6.37-2.69-3.44-2.97-5.75-7.78-5.75-11.97,0-3.89,2.08-6.87,5.3-7.6,2.54-.56,5.34,.34,7.88,2.53,3.44,2.97,5.76,7.78,5.76,11.96Z"/><path class="cls-2" d="M92.63,139.49c0,3.96-2.03,6.87-5.31,7.6-.49,.11-1,.16-1.51,.16-2.11,0-4.32-.92-6.37-2.69-3.44-2.96-5.75-7.77-5.75-11.96,0-3.9,2.08-6.88,5.3-7.6,2.54-.57,5.34,.33,7.88,2.53,3.44,2.96,5.76,7.77,5.76,11.96Z"/></g><path class="cls-2" d="M151.73,191.33c-5.28,0-10.44-1.24-14.53-3.5-.61-.2-1.33-.53-2.1-.98-4.41-2.6-8.95-5.16-13.34-7.63-3.29-1.85-6.58-3.71-9.84-5.59-3.48-2.01-6.95-4.05-10.41-6.1-3.85-2.27-7.83-4.61-11.77-6.87-5.96-3.43-12.09-6.77-17.29-9.58-6.08-3.3-8.88-7.82-8.82-14.22,.15-17.85,.12-36.01,.1-53.57,0-6.7-.02-13.4-.02-20.1,0-9.47,3.92-16.7,11.66-21.49,7.13-4.42,14.48-8.76,21.59-12.95l9-5.3c.33-.19,.66-.39,1-.58,3.59-2.12,7.21-4.2,10.83-6.29,3.28-1.89,6.56-3.78,9.82-5.69,1.46-.85,2.9-1.73,4.34-2.61,2.65-1.61,5.4-3.28,8.19-4.76,5.04-2.69,9.29-3.77,13.33-3.44,3.8,.31,7.52,1.41,11.12,2.47,1.1,.32,2.2,.65,3.3,.95,1.92,.53,3.83,1.07,5.74,1.6,3.21,.9,6.52,1.84,9.79,2.7,6.02,1.59,12.05,3.14,18.08,4.7,4.9,1.26,9.8,2.53,14.7,3.81,2.92,.77,5.78,1.62,8.5,2.54,1.48,.5,2.57,1.71,2.91,3.24,.35,1.55-.12,3.13-1.26,4.24-1.16,1.12-2.64,2.19-4.4,3.18-3.97,2.22-8.02,4.43-11.94,6.57l-1.87,1.02c15.87,7.98,21,10.85,25.97,13.62,3.78,2.12,5.54,5.22,5.52,9.77-.11,27.86-.11,53.74,0,79.14,.02,4.44-1.74,7.54-5.53,9.75-2.59,1.51-5.16,3.04-7.72,4.58-2.76,1.65-5.61,3.35-8.44,4.99-2.71,1.57-5.49,3.12-8.17,4.61-2.45,1.36-4.9,2.73-7.33,4.13-4.2,2.41-8.4,4.85-12.59,7.28-5.09,2.96-10.35,6.01-15.55,8.98-1.91,1.09-3.88,2.14-5.86,3.12-.68,.34-1.4,.6-2.13,.76-4.08,2.27-9.25,3.53-14.57,3.53Zm.3-190.33c-3.45,0-7.12,1.09-11.42,3.38-2.77,1.46-5.5,3.12-8.13,4.73-1.45,.88-2.9,1.76-4.36,2.62-3.27,1.92-6.55,3.81-9.83,5.7-3.62,2.08-7.23,4.16-10.83,6.28-.34,.19-.67,.39-.99,.58l-9,5.3c-7.1,4.19-14.45,8.53-21.57,12.94-7.42,4.6-11.18,11.55-11.18,20.65,0,6.7,0,13.4,.02,20.09,.02,17.56,.05,35.72-.1,53.58-.05,6.07,2.5,10.19,8.3,13.34,5.21,2.82,11.34,6.16,17.31,9.6,3.94,2.26,7.93,4.61,11.78,6.88,3.46,2.04,6.92,4.08,10.41,6.09,3.26,1.89,6.55,3.74,9.83,5.59,4.39,2.48,8.93,5.04,13.35,7.64,.71,.41,1.36,.72,1.99,.93,4.03,2.21,9.01,3.41,14.13,3.41s10.2-1.22,14.15-3.44l.14-.05c.67-.14,1.34-.37,1.97-.69,1.96-.98,3.92-2.02,5.81-3.1,5.2-2.96,10.46-6.02,15.54-8.97,4.2-2.44,8.39-4.87,12.59-7.29,2.44-1.4,4.89-2.77,7.34-4.13,2.68-1.5,5.46-3.04,8.16-4.61,2.82-1.64,5.67-3.34,8.43-4.99,2.57-1.54,5.14-3.08,7.73-4.58,3.5-2.04,5.05-4.78,5.03-8.89-.11-25.4-.11-51.28,0-79.14h0c.02-4.14-1.57-6.97-5-8.89-5.04-2.82-10.26-5.73-26.78-14.03l-.85-.43,3.54-1.93c3.92-2.14,7.97-4.35,11.93-6.56,1.68-.94,3.1-1.96,4.2-3.02,.89-.86,1.26-2.09,.98-3.3-.27-1.18-1.11-2.12-2.25-2.51-2.7-.91-5.54-1.76-8.44-2.52-4.89-1.28-9.79-2.54-14.69-3.81-6.03-1.56-12.07-3.11-18.09-4.7-3.28-.87-6.6-1.81-9.8-2.71-1.91-.54-3.82-1.08-5.73-1.6-1.1-.3-2.21-.63-3.32-.95-3.55-1.05-7.23-2.13-10.92-2.43-.45-.04-.9-.06-1.36-.06Z"/></g><g><path class="cls-2" d="M13.86,235.35h-3.92v15.89H4.16v-15.89H0l.34-5.11H14.2l-.34,5.11Z"/><path class="cls-2" d="M31.04,251.24h-5.75v-7.95h-3.96v7.95h-5.82v-21h5.82v8.25h3.96v-8.25h5.75v21Z"/><path class="cls-2" d="M45.24,251.24h-11.36v-21h11.7l-.34,5.17h-5.58v3.14h4.84v4.46h-4.84v3.48h5.92l-.34,4.73Z"/><path class="cls-2" d="M65.32,251.24h-10.68v-21h5.78v16.3h5.24l-.34,4.7Z"/><path class="cls-2" d="M68.15,232.44c1.3-1.69,3.42-2.54,6.37-2.54s5.07,.83,6.34,2.5c1.27,1.67,1.91,4.38,1.91,8.13s-.65,6.53-1.96,8.33c-1.31,1.8-3.43,2.7-6.36,2.7s-5.04-.89-6.32-2.67c-1.28-1.78-1.93-4.55-1.93-8.3s.65-6.47,1.94-8.17Zm8.32,3.91c-.33-.73-.99-1.1-1.99-1.1s-1.65,.37-1.94,1.1c-.29,.73-.44,2.12-.44,4.18v.81c0,2.19,.16,3.62,.49,4.31,.33,.69,.99,1.03,1.99,1.03s1.65-.33,1.94-.98c.29-.65,.44-2.01,.44-4.06v-1.08c0-2.07-.16-3.48-.49-4.21Z"/><path class="cls-2" d="M100.39,251.24h-5.55l-4.36-9.77h-.27v9.77h-5.14v-21h5.71l4.16,10.08h.27v-10.08h5.17v21Z"/><path class="cls-2" d="M116.01,236.5c-2.16-.65-3.75-.98-4.75-.98s-1.69,.44-2.06,1.32-.56,2.27-.56,4.18,.17,3.29,.52,4.16c.35,.87,1.07,1.3,2.15,1.3,.32,0,.92-.09,1.83-.27v-2.57h-1.52v-3.99h6.46v11.6h-3.99l-.54-1.08h-.14c-.38,.32-.69,.55-.91,.71-.63,.47-1.52,.71-2.67,.71-4.71,0-7.07-3.56-7.07-10.68,0-3.56,.62-6.28,1.86-8.17,1.24-1.88,3.32-2.82,6.26-2.82,2.34,0,4.36,.36,6.05,1.08l-.91,5.51Z"/><path class="cls-2" d="M140.66,236.5c-2.16-.65-3.75-.98-4.75-.98s-1.69,.44-2.06,1.32-.56,2.27-.56,4.18,.17,3.29,.52,4.16c.35,.87,1.07,1.3,2.15,1.3,.32,0,.92-.09,1.83-.27v-2.57h-1.52v-3.99h6.46v11.6h-3.99l-.54-1.08h-.14c-.38,.32-.69,.55-.91,.71-.63,.47-1.52,.71-2.67,.71-4.71,0-7.07-3.56-7.07-10.68,0-3.56,.62-6.28,1.86-8.17,1.24-1.88,3.32-2.82,6.26-2.82,2.34,0,4.36,.36,6.05,1.08l-.91,5.51Z"/><path class="cls-2" d="M160.64,251.24h-5.65l-.64-3.31h-3.99l-.64,3.31h-5.38l3.85-21h8.59l3.85,21Zm-6.93-7.27l-1.18-7.51h-.24l-1.18,7.51h2.6Z"/><path class="cls-2" d="M182.72,251.24h-5.31v-10.96h-.3l-1.99,10.96h-5.44l-1.89-10.96h-.34v10.96h-5.24l.71-21h7.61l1.89,11.36h.27l1.83-11.36h7.51l.71,21Z"/><path class="cls-2" d="M196.85,251.24h-11.36v-21h11.7l-.34,5.17h-5.58v3.14h4.84v4.46h-4.84v3.48h5.92l-.34,4.73Z"/><path class="cls-2" d="M213.49,244.38h-1.56v6.86h-5.68v-21h6.86c2.41,0,4.2,.55,5.38,1.66,1.17,1.1,1.76,2.92,1.76,5.44s-.55,4.33-1.66,5.41c-1.1,1.08-2.81,1.62-5.11,1.62Zm.64-4.56c.2-.38,.3-1.07,.3-2.06s-.11-1.69-.34-2.1c-.23-.41-.68-.61-1.35-.61h-.81v5.34h.95c.63,0,1.05-.19,1.25-.57Z"/><path class="cls-2" d="M236.31,236.91c0,1.26-.19,2.31-.57,3.14-.38,.83-.98,1.59-1.79,2.27l2.81,8.93h-6.26l-2.1-7.57h-.78v7.57h-5.68v-21h7.84c2.25,0,3.91,.53,4.95,1.59,1.05,1.06,1.57,2.75,1.57,5.07Zm-6.56,2.7c.25-.34,.37-.95,.37-1.84s-.12-1.51-.37-1.86c-.25-.35-.65-.52-1.22-.52h-.91v4.73h.88c.59,0,1-.17,1.25-.51Z"/><path class="cls-2" d="M239.91,232.44c1.3-1.69,3.42-2.54,6.37-2.54s5.07,.83,6.34,2.5c1.27,1.67,1.91,4.38,1.91,8.13s-.65,6.53-1.96,8.33c-1.31,1.8-3.43,2.7-6.36,2.7s-5.04-.89-6.32-2.67c-1.28-1.78-1.93-4.55-1.93-8.3s.65-6.47,1.94-8.17Zm8.32,3.91c-.33-.73-.99-1.1-1.99-1.1s-1.65,.37-1.94,1.1c-.29,.73-.44,2.12-.44,4.18v.81c0,2.19,.16,3.62,.49,4.31,.33,.69,.99,1.03,1.99,1.03s1.65-.33,1.94-.98c.29-.65,.44-2.01,.44-4.06v-1.08c0-2.07-.16-3.48-.49-4.21Z"/><path class="cls-2" d="M263.59,230.24v16.77c0,1.74-.39,2.93-1.18,3.58-.79,.65-2.24,.98-4.36,.98h-1.72l-.44-4.6h1.15c.38,0,.63-.05,.73-.15s.15-.32,.15-.66v-15.93h5.68Z"/><path class="cls-2" d="M277.93,251.24h-11.36v-21h11.7l-.34,5.17h-5.58v3.14h4.84v4.46h-4.84v3.48h5.92l-.34,4.73Z"/><path class="cls-2" d="M285.44,240.95c0,2,.2,3.42,.59,4.26,.39,.85,1.04,1.27,1.94,1.27s2.18-.21,3.82-.64l.88,4.77c-1.78,.65-3.57,.98-5.38,.98-2.7,0-4.67-.9-5.9-2.69-1.23-1.79-1.84-4.46-1.84-8.01s.64-6.27,1.93-8.15c1.28-1.88,3.38-2.82,6.29-2.82,1.71,0,3.35,.36,4.9,1.08l-.91,5.24c-1.76-.59-2.99-.88-3.69-.88-.99,0-1.68,.43-2.06,1.3-.38,.87-.57,2.3-.57,4.29Z"/><path class="cls-2" d="M306.3,235.35h-3.92v15.89h-5.78v-15.89h-4.16l.34-5.11h13.86l-.34,5.11Z"/></g></g></g></svg>