<?xml version="1.0" encoding="UTF-8"?><svg id="Layer_2" xmlns="http://www.w3.org/2000/svg" viewBox="0 0 221.46 105.31"><defs><style>.cls-1{stroke:#1A3A3A;stroke-miterlimit:10;}.cls-1,.cls-2{fill:#1A3A3A;}</style></defs><g id="Logo_Elements"><g><g><g><path class="cls-1" d="M65.66,29.03c3.76-2.11,7.48-4.29,11.25-6.39,3.77-2.1,7.58-4.13,11.35-6.23,.86-.48,1.69-1.05,2.39-1.73,1.19-1.15,.75-3.17-.81-3.7s-3.13-.99-4.72-1.41c-6.08-1.59-12.18-3.13-18.26-4.74-2.89-.77-5.77-1.6-8.65-2.4-2.62-.72-5.26-1.67-7.98-1.9-2.57-.21-5.03,.69-7.27,1.88-2.38,1.26-4.64,2.74-6.96,4.1-3.83,2.24-7.69,4.42-11.51,6.67-.26,.15-.52,.31-.78,.46-.88,.52-1.76,1.04-2.64,1.56-4.74,2.8-9.49,5.58-14.16,8.48C2.58,26.36,.55,30.36,.55,35.41c0,13.68,.07,27.36-.04,41.04-.03,3.72,1.71,6.01,4.77,7.67,3.23,1.75,6.45,3.51,9.63,5.34,4.14,2.37,8.22,4.84,12.35,7.22,4.29,2.48,8.65,4.85,12.91,7.37,3.05,1.8,5.04,.22,4.94-2.68,0-.09,0-.18,0-.28,0-13.86,.01-27.73-.01-41.59,0-2.24-.84-4.11-2.89-5.28-3.58-2.05-7.15-4.14-10.75-6.16-6.48-3.65-12.99-7.26-19.48-10.88-2.11-1.18-3.16-3.35-2.44-5.57,.37-1.15,1.2-2.16,2.53-2.26,1.28-.09,2.63-.14,3.86,.16,10.53,2.59,21.03,5.28,31.55,7.88,.84,.21,1.87,.2,2.66-.1,1.69-.66,3.31-1.54,4.91-2.41,3.55-1.92,7.1-3.87,10.62-5.85Zm-2.13-15.41c.67-.69,1.69-1.24,3.11-1.68,1.66-.52,4.36-.95,6.53-.47,1.35,.3,2.28,.95,2.62,1.82,.18,.46,.33,1.38-.64,2.38-.67,.69-1.69,1.24-3.11,1.68-1.15,.36-2.81,.68-4.43,.68-.72,0-1.43-.06-2.09-.21h0c-1.35-.3-2.28-.95-2.62-1.83-.18-.46-.33-1.38,.64-2.38Zm-21.05,3.7c.67-.69,1.69-1.24,3.11-1.68,1.66-.52,4.36-.95,6.53-.47,1.35,.3,2.28,.95,2.62,1.82,.18,.46,.33,1.38-.64,2.38-.67,.69-1.69,1.24-3.11,1.68-1.15,.36-2.81,.68-4.43,.68-.72,0-1.43-.06-2.09-.21h0c-1.35-.3-2.28-.95-2.62-1.83-.18-.46-.33-1.38,.64-2.38Zm-21.22,3.99c.67-.69,1.69-1.24,3.11-1.68,1.66-.52,4.36-.95,6.53-.47,1.35,.3,2.28,.95,2.62,1.82,.18,.46,.33,1.38-.64,2.38-.67,.69-1.69,1.24-3.11,1.68-1.15,.36-2.81,.68-4.43,.68-.72,0-1.43-.06-2.09-.21h0c-1.35-.3-2.28-.95-2.62-1.83-.18-.46-.33-1.38,.64-2.38Zm-7.84,60.84c-.28,.06-.56,.09-.84,.09-1.17,0-2.4-.52-3.55-1.5-1.92-1.65-3.21-4.33-3.21-6.66,0-2.17,1.16-3.83,2.95-4.23,1.41-.32,2.97,.18,4.39,1.41,1.92,1.65,3.2,4.33,3.2,6.66,0,2.2-1.13,3.82-2.95,4.23Zm18.59-25.71c1.41-.32,2.97,.18,4.39,1.41,1.92,1.65,3.2,4.33,3.2,6.66,0,2.2-1.13,3.82-2.95,4.23-.28,.06-.56,.09-.84,.09-1.17,0-2.41-.52-3.55-1.5-1.92-1.65-3.2-4.33-3.2-6.66,0-2.2,1.13-3.82,2.95-4.23Zm0,26.82c1.41-.32,2.97,.18,4.39,1.41,1.92,1.65,3.21,4.33,3.21,6.66,0,2.2-1.13,3.82-2.95,4.23-.28,.06-.56,.09-.84,.09-1.17,0-2.4-.52-3.55-1.5-1.92-1.65-3.2-4.33-3.2-6.66,0-2.2,1.13-3.82,2.95-4.23Zm-11.61-19.59c1.41-.32,2.97,.18,4.39,1.41,1.92,1.65,3.21,4.33,3.21,6.66,0,2.2-1.13,3.82-2.95,4.23-.28,.06-.56,.09-.84,.09-1.17,0-2.4-.52-3.55-1.5-1.92-1.65-3.2-4.33-3.2-6.66,0-2.17,1.16-3.83,2.95-4.23Zm-7.22-19.23c1.92,1.65,3.2,4.33,3.2,6.66,0,2.2-1.13,3.82-2.95,4.23-.28,.06-.56,.09-.84,.09-1.17,0-2.4-.52-3.55-1.5-1.92-1.65-3.21-4.33-3.21-6.66,0-2.17,1.16-3.83,2.95-4.23,1.42-.31,2.97,.18,4.39,1.41Z"/><path class="cls-1" d="M97.97,33.9c0-2.39-.9-4.06-2.93-5.19-3.12-1.75-6.26-3.48-9.7-5.4l-7.53,4.34c3.14,1.83,6.47,3.94,9.56,5.77,.62,.37,1,1.03,1,1.74h0c0,.74-.4,1.42-1.05,1.78-2.77,1.51-5.57,3.02-8.34,4.57-7.13,4-14.23,8.02-21.35,12.04-2.41,1.36-3.79,3.18-3.76,6.19,.1,13.77,.05,27.54,.05,41.31,0,.08,0,.17,0,.25-.05,2.85,2.02,4.14,4.56,2.86,1.1-.55,2.18-1.12,3.25-1.73,5.24-2.99,10.44-6.06,15.68-9.06,2.86-1.64,5.77-3.21,8.63-4.87,3.02-1.75,5.99-3.57,9-5.33,2.01-1.17,2.95-2.8,2.94-5.19-.06-14.69-.06-29.39,0-44.08Zm-18.47,40.6c-1.14,.98-2.37,1.5-3.55,1.5-.29,0-.57-.03-.84-.09-1.82-.41-2.95-2.03-2.95-4.23,0-2.33,1.29-5.01,3.21-6.66,1.42-1.22,2.98-1.72,4.39-1.41,1.82,.41,2.95,2.03,2.95,4.23,0,2.33-1.29,5.01-3.21,6.66Z"/></g><path class="cls-2" d="M118.51,95.73c-1.1,0-2-.9-2-2V14.88c0-1.1,.9-2,2-2s2,.9,2,2V93.73c0,1.1-.9,2-2,2Z"/></g><g><path class="cls-2" d="M149.27,19.06h-3.21v13.01h-4.73v-13.01h-3.4l.28-4.18h11.35l-.28,4.18Z"/><path class="cls-2" d="M163.33,32.07h-4.71v-6.51h-3.24v6.51h-4.76V14.88h4.76v6.75h3.24v-6.75h4.71v17.19Z"/><path class="cls-2" d="M174.96,32.07h-9.3V14.88h9.58l-.28,4.24h-4.57v2.57h3.96v3.65h-3.96v2.85h4.84l-.28,3.88Z"/><path class="cls-2" d="M148.02,52.14h-8.75v-17.19h4.73v13.34h4.29l-.28,3.85Z"/><path class="cls-2" d="M150.33,36.75c1.06-1.38,2.8-2.08,5.22-2.08s4.15,.68,5.19,2.05c1.04,1.37,1.56,3.58,1.56,6.66s-.54,5.35-1.61,6.82c-1.07,1.48-2.81,2.21-5.2,2.21s-4.12-.73-5.18-2.19c-1.05-1.46-1.58-3.72-1.58-6.8s.53-5.3,1.59-6.68Zm6.81,3.2c-.27-.6-.81-.9-1.63-.9s-1.35,.3-1.59,.9c-.24,.6-.36,1.74-.36,3.42v.66c0,1.79,.13,2.97,.4,3.53,.27,.56,.81,.84,1.63,.84s1.35-.27,1.59-.8c.24-.54,.36-1.64,.36-3.32v-.89c0-1.7-.13-2.85-.4-3.45Z"/><path class="cls-2" d="M176.73,52.14h-4.54l-3.57-8h-.22v8h-4.21v-17.19h4.68l3.4,8.25h.22v-8.25h4.24v17.19Z"/><path class="cls-2" d="M189.52,40.07c-1.77-.53-3.07-.8-3.89-.8s-1.38,.36-1.69,1.08c-.3,.72-.46,1.86-.46,3.42s.14,2.69,.43,3.4c.29,.71,.87,1.07,1.76,1.07,.26,0,.76-.07,1.49-.22v-2.1h-1.25v-3.27h5.29v9.49h-3.27l-.44-.89h-.11c-.31,.26-.56,.45-.75,.58-.52,.39-1.25,.58-2.19,.58-3.86,0-5.79-2.92-5.79-8.75,0-2.92,.51-5.14,1.52-6.68,1.01-1.54,2.72-2.31,5.12-2.31,1.92,0,3.57,.3,4.95,.89l-.75,4.51Z"/><path class="cls-2" d="M149.63,60.14c-1.77-.53-3.07-.8-3.89-.8s-1.38,.36-1.69,1.08c-.3,.72-.46,1.86-.46,3.42s.14,2.69,.43,3.4c.29,.71,.87,1.07,1.76,1.07,.26,0,.76-.07,1.49-.22v-2.1h-1.25v-3.27h5.29v9.49h-3.27l-.44-.89h-.11c-.31,.26-.56,.45-.75,.58-.52,.39-1.25,.58-2.19,.58-3.86,0-5.79-2.92-5.79-8.75,0-2.92,.51-5.14,1.52-6.68,1.01-1.54,2.72-2.31,5.12-2.31,1.92,0,3.57,.3,4.95,.89l-.75,4.51Z"/><path class="cls-2" d="M165.99,72.21h-4.62l-.53-2.71h-3.27l-.53,2.71h-4.4l3.16-17.19h7.03l3.16,17.19Zm-5.67-5.95l-.97-6.15h-.19l-.97,6.15h2.13Z"/><path class="cls-2" d="M184.06,72.21h-4.35v-8.97h-.25l-1.63,8.97h-4.46l-1.55-8.97h-.28v8.97h-4.29l.58-17.19h6.23l1.55,9.3h.22l1.49-9.3h6.15l.58,17.19Z"/><path class="cls-2" d="M195.63,72.21h-9.3v-17.19h9.58l-.28,4.24h-4.57v2.57h3.96v3.65h-3.96v2.85h4.84l-.28,3.88Z"/><path class="cls-2" d="M145.2,86.66h-1.27v5.62h-4.65v-17.19h5.62c1.97,0,3.44,.45,4.4,1.36,.96,.9,1.44,2.39,1.44,4.46s-.45,3.54-1.36,4.43c-.9,.89-2.3,1.33-4.18,1.33Zm.53-3.74c.17-.31,.25-.88,.25-1.69s-.09-1.38-.28-1.72c-.18-.33-.55-.5-1.11-.5h-.66v4.37h.78c.52,0,.86-.16,1.02-.47Z"/><path class="cls-2" d="M163.88,80.54c0,1.03-.16,1.89-.47,2.57-.31,.68-.8,1.3-1.47,1.85l2.3,7.31h-5.12l-1.72-6.2h-.64v6.2h-4.65v-17.19h6.42c1.85,0,3.2,.43,4.06,1.3,.86,.87,1.29,2.25,1.29,4.15Zm-5.37,2.21c.2-.28,.3-.78,.3-1.51s-.1-1.24-.3-1.52c-.2-.29-.54-.43-1-.43h-.75v3.88h.72c.48,0,.82-.14,1.02-.42Z"/><path class="cls-2" d="M166.83,76.89c1.06-1.38,2.8-2.08,5.22-2.08s4.15,.68,5.19,2.05c1.04,1.37,1.56,3.58,1.56,6.66s-.54,5.35-1.61,6.82c-1.07,1.48-2.81,2.21-5.2,2.21s-4.12-.73-5.18-2.19c-1.05-1.46-1.58-3.72-1.58-6.8s.53-5.3,1.59-6.68Zm6.81,3.2c-.27-.6-.81-.9-1.63-.9s-1.35,.3-1.59,.9c-.24,.6-.36,1.74-.36,3.42v.66c0,1.79,.13,2.97,.4,3.53,.27,.56,.81,.84,1.63,.84s1.35-.27,1.59-.8c.24-.54,.36-1.64,.36-3.32v-.89c0-1.7-.13-2.85-.4-3.45Z"/><path class="cls-2" d="M186.22,75.09v13.73c0,1.42-.32,2.4-.97,2.93-.65,.53-1.84,.8-3.57,.8h-1.41l-.36-3.76h.94c.31,0,.51-.04,.6-.12,.08-.08,.12-.26,.12-.54v-13.04h4.65Z"/><path class="cls-2" d="M197.96,92.28h-9.3v-17.19h9.58l-.28,4.24h-4.57v2.57h3.96v3.65h-3.96v2.85h4.84l-.28,3.88Z"/><path class="cls-2" d="M204.1,83.85c0,1.63,.16,2.8,.48,3.49,.32,.69,.85,1.04,1.59,1.04s1.78-.18,3.13-.53l.72,3.9c-1.46,.53-2.93,.8-4.4,.8-2.21,0-3.82-.73-4.83-2.2-1.01-1.47-1.51-3.65-1.51-6.56s.53-5.13,1.58-6.67c1.05-1.54,2.77-2.31,5.15-2.31,1.4,0,2.74,.3,4.01,.89l-.75,4.29c-1.44-.48-2.45-.72-3.02-.72-.81,0-1.37,.36-1.69,1.07-.31,.71-.47,1.88-.47,3.52Z"/><path class="cls-2" d="M221.18,79.27h-3.21v13.01h-4.73v-13.01h-3.4l.28-4.18h11.35l-.28,4.18Z"/></g></g></g></svg>